<svg width="42" height="42" viewBox="0 0 42 42" fill="none" xmlns="http://www.w3.org/2000/svg">
<g id="positive-vote (1) 1" clip-path="url(#clip0_3_3449)">
<path id="Vector" d="M38.2746 23.0273C38.2746 33.5058 29.7793 42.0002 19.3011 42.0002C16.7305 42.0002 14.2802 41.4891 12.0451 40.5628C5.93637 38.0323 1.43683 32.4026 0.506607 25.635C0.388367 24.7826 0.328125 23.912 0.328125 23.0273C0.328125 12.5481 8.82253 4.05371 19.3011 4.05371C29.7793 4.05371 38.2746 12.5481 38.2746 23.0273Z" fill="#937DE2"/>
<path id="Vector_2" d="M19.301 4.05371C18.2977 4.05371 17.313 4.13222 16.3521 4.28218C25.4303 5.69882 32.377 13.5511 32.377 23.0273C32.377 32.5022 25.4309 40.3541 16.3533 41.7714C17.314 41.9214 18.2981 42.0002 19.3007 42.0002C29.7792 42.0002 38.2746 33.5058 38.2746 23.0273C38.2746 12.5481 29.7792 4.05371 19.301 4.05371Z" fill="#7570D6"/>
<path id="Vector_3" d="M40.6433 21.6245L29.8091 28.7987C29.0371 29.3101 28.1021 29.513 27.1882 29.3668C26.2721 29.221 25.3348 29.421 24.561 29.9334L23.111 30.8943L14.9912 18.9251L16.9834 10.3189C17.1381 9.64888 17.2147 8.96988 17.2147 8.29345C17.2147 6.54355 16.703 4.81641 15.7215 3.33376C15.4802 2.9691 15.3648 2.5567 15.3648 2.14943C15.3648 1.45345 15.7026 0.770602 16.3268 0.357241C17.1679 -0.199995 18.2827 -0.0964943 19.0069 0.605898L20.2976 1.85591C21.7735 3.28794 22.912 5.03142 23.6269 6.9598L24.3268 8.84395L31.5336 4.08229C32.6847 3.3203 34.2416 3.65355 34.9767 4.83243C35.6855 5.96805 35.3215 7.46865 34.2048 8.20789C34.1913 8.21686 34.1904 8.23128 34.1949 8.24218C34.2013 8.25403 34.2147 8.26204 34.2298 8.25563C34.5147 8.14605 34.8127 8.09285 35.1081 8.09285C35.5798 8.09285 36.0473 8.22872 36.4472 8.48731C36.7228 8.66547 36.9669 8.90227 37.1595 9.19323C37.5315 9.75527 37.6424 10.4144 37.5206 11.0271C37.3297 11.9922 36.6282 12.4895 36.4905 12.5831C36.4671 12.5994 36.4607 12.6318 36.477 12.6562C36.477 12.6568 36.478 12.6578 36.4786 12.6578C36.494 12.6796 36.5254 12.6856 36.5478 12.6715C36.7442 12.6238 36.9442 12.601 37.1441 12.601C37.6322 12.601 38.1176 12.7398 38.5303 13.0029C38.8094 13.1814 39.0562 13.4172 39.2472 13.7062C39.9963 14.8374 39.6868 16.362 38.5544 17.1115C38.5265 17.1304 38.4986 17.1493 38.4707 17.1672C38.4547 17.1801 38.4499 17.2006 38.4582 17.215C38.4598 17.2185 38.4637 17.2224 38.4672 17.224C38.4797 17.2339 38.4996 17.2349 38.5159 17.2224C39.2193 16.9827 39.9848 17.0916 40.6007 17.4906C40.8843 17.6726 41.1358 17.9177 41.3348 18.2183C42.0843 19.3504 41.7744 20.875 40.6433 21.6245Z" fill="#FDD7BD"/>
<path id="Vector_4" d="M23.2145 33.1658L18.6438 36.1926L12.0451 40.5624C5.93636 38.0316 1.43681 32.4028 0.506592 25.6346L8.16434 20.5634L12.826 17.476C13.3628 17.1204 14.0869 17.2681 14.4426 17.8058L23.5442 31.5482C23.8999 32.0859 23.7522 32.8088 23.2145 33.1658Z" fill="#87DBFF"/>
<path id="Vector_5" d="M23.2145 33.1658L18.6438 36.1926L8.16431 20.5634L12.826 17.476C13.3627 17.1204 14.0869 17.2681 14.4426 17.8058L23.5442 31.5479C23.8999 32.0859 23.7522 32.8088 23.2145 33.1658Z" fill="#6FC7FF"/>
<g id="Group">
<path id="Vector_6" d="M36.4473 8.48691L32.842 10.4162C32.3306 10.6893 31.6965 10.5467 31.3527 10.0811L34.1949 8.2421C34.2013 8.25395 34.2148 8.26196 34.2298 8.25555C34.5147 8.14597 34.8127 8.09277 35.1082 8.09277C35.5802 8.09277 36.0473 8.22864 36.4473 8.48691Z" fill="#FAC5AA"/>
<path id="Vector_7" d="M38.5304 13.0024L35.0037 14.8882C34.4923 15.1621 33.8582 15.0199 33.514 14.5543L36.3563 12.715L36.479 12.6573C36.4944 12.6791 36.5258 12.6852 36.5482 12.6711C36.7447 12.6233 36.9446 12.6006 37.1446 12.6006C37.6326 12.6006 38.118 12.7393 38.5304 13.0024Z" fill="#FAC5AA"/>
<path id="Vector_8" d="M40.601 17.4901L37.4947 19.1518C36.9839 19.4245 36.3501 19.2823 36.005 18.8167L38.4672 17.2235C38.48 17.2334 38.4999 17.2344 38.5159 17.2215C39.2193 16.9822 39.9848 17.0911 40.601 17.4901Z" fill="#FAC5AA"/>
</g>
</g>
<defs>
<clipPath id="clip0_3_3449">
<rect width="42" height="42" fill="white"/>
</clipPath>
</defs>
</svg>
