<svg width="1028" height="483" viewBox="0 0 1028 483" fill="none" xmlns="http://www.w3.org/2000/svg">
<path d="M1001.96 133.251C1061.86 253.788 1012.7 400.061 892.165 459.959C771.628 519.858 625.356 470.702 565.457 350.165C505.558 229.628 554.715 83.3554 675.252 23.4565C795.788 -36.4425 942.061 12.7144 1001.96 133.251ZM620.208 322.957C665.081 413.255 774.658 450.08 864.957 405.208C955.255 360.335 992.08 250.758 947.208 160.459C902.335 70.161 792.758 33.336 702.46 78.2083C612.161 123.081 575.336 232.658 620.208 322.957Z" fill="url(#paint0_linear_232_182)"/>
<mask id="mask0_232_182" style="mask-type:alpha" maskUnits="userSpaceOnUse" x="539" y="-3" width="489" height="489">
<path d="M1001.96 133.251C1061.86 253.788 1012.7 400.061 892.165 459.959C771.628 519.858 625.356 470.702 565.457 350.165C505.558 229.628 554.715 83.3554 675.252 23.4565C795.788 -36.4425 942.061 12.7144 1001.96 133.251ZM620.208 322.957C665.081 413.255 774.658 450.08 864.957 405.208C955.255 360.335 992.08 250.758 947.208 160.459C902.335 70.161 792.758 33.336 702.46 78.2083C612.161 123.081 575.336 232.658 620.208 322.957Z" fill="url(#paint1_linear_232_182)"/>
</mask>
<g mask="url(#mask0_232_182)">
<rect x="110.268" y="241.145" width="1107.48" height="15" transform="rotate(-29.0625 110.268 241.145)" fill="url(#paint2_linear_232_182)" fill-opacity="0.04"/>
<rect x="119.497" y="257.753" width="1107.48" height="15" transform="rotate(-29.0625 119.497 257.753)" fill="url(#paint3_linear_232_182)" fill-opacity="0.04"/>
<rect x="128.727" y="274.36" width="1107.48" height="15" transform="rotate(-29.0625 128.727 274.36)" fill="url(#paint4_linear_232_182)" fill-opacity="0.04"/>
<rect x="137.956" y="290.968" width="1107.48" height="15" transform="rotate(-29.0625 137.956 290.968)" fill="url(#paint5_linear_232_182)" fill-opacity="0.04"/>
<rect x="147.186" y="307.576" width="1107.48" height="15" transform="rotate(-29.0625 147.186 307.576)" fill="url(#paint6_linear_232_182)" fill-opacity="0.04"/>
<rect x="156.415" y="324.184" width="1107.48" height="15" transform="rotate(-29.0625 156.415 324.184)" fill="url(#paint7_linear_232_182)" fill-opacity="0.04"/>
<rect x="165.645" y="340.792" width="1107.48" height="15" transform="rotate(-29.0625 165.645 340.792)" fill="url(#paint8_linear_232_182)" fill-opacity="0.04"/>
<rect x="174.874" y="357.399" width="1107.48" height="15" transform="rotate(-29.0625 174.874 357.399)" fill="url(#paint9_linear_232_182)" fill-opacity="0.04"/>
<rect x="184.104" y="374.007" width="1107.48" height="15" transform="rotate(-29.0625 184.104 374.007)" fill="url(#paint10_linear_232_182)" fill-opacity="0.04"/>
<rect x="193.333" y="390.615" width="1107.48" height="15" transform="rotate(-29.0625 193.333 390.615)" fill="url(#paint11_linear_232_182)" fill-opacity="0.04"/>
<rect x="202.563" y="407.222" width="1107.48" height="15" transform="rotate(-29.0625 202.563 407.222)" fill="url(#paint12_linear_232_182)" fill-opacity="0.04"/>
<rect x="211.792" y="423.83" width="1107.48" height="15" transform="rotate(-29.0625 211.792 423.83)" fill="url(#paint13_linear_232_182)" fill-opacity="0.04"/>
<rect x="221.022" y="440.438" width="1107.48" height="15" transform="rotate(-29.0625 221.022 440.438)" fill="url(#paint14_linear_232_182)" fill-opacity="0.04"/>
<rect x="230.251" y="457.045" width="1107.48" height="15" transform="rotate(-29.0625 230.251 457.045)" fill="url(#paint15_linear_232_182)" fill-opacity="0.04"/>
<rect x="239.481" y="473.653" width="1107.48" height="15" transform="rotate(-29.0625 239.481 473.653)" fill="url(#paint16_linear_232_182)" fill-opacity="0.04"/>
<rect x="248.71" y="490.261" width="1107.48" height="15" transform="rotate(-29.0625 248.71 490.261)" fill="url(#paint17_linear_232_182)" fill-opacity="0.04"/>
<rect x="257.94" y="506.869" width="1107.48" height="15" transform="rotate(-29.0625 257.94 506.869)" fill="url(#paint18_linear_232_182)" fill-opacity="0.04"/>
<rect x="267.169" y="523.476" width="1107.48" height="15" transform="rotate(-29.0625 267.169 523.476)" fill="url(#paint19_linear_232_182)" fill-opacity="0.04"/>
<rect x="276.399" y="540.084" width="1107.48" height="15" transform="rotate(-29.0625 276.399 540.084)" fill="url(#paint20_linear_232_182)" fill-opacity="0.04"/>
<rect x="285.628" y="556.692" width="1107.48" height="15" transform="rotate(-29.0625 285.628 556.692)" fill="url(#paint21_linear_232_182)" fill-opacity="0.04"/>
<rect x="294.858" y="573.299" width="1107.48" height="15" transform="rotate(-29.0625 294.858 573.299)" fill="url(#paint22_linear_232_182)" fill-opacity="0.04"/>
<rect x="304.087" y="589.907" width="1107.48" height="15" transform="rotate(-29.0625 304.087 589.907)" fill="url(#paint23_linear_232_182)" fill-opacity="0.04"/>
<rect x="313.317" y="606.515" width="1107.48" height="15" transform="rotate(-29.0625 313.317 606.515)" fill="url(#paint24_linear_232_182)" fill-opacity="0.04"/>
<rect x="322.546" y="623.123" width="1107.48" height="15" transform="rotate(-29.0625 322.546 623.123)" fill="url(#paint25_linear_232_182)" fill-opacity="0.04"/>
<rect x="331.776" y="639.73" width="1107.48" height="15" transform="rotate(-29.0625 331.776 639.73)" fill="url(#paint26_linear_232_182)" fill-opacity="0.04"/>
<rect x="341.005" y="656.338" width="1107.48" height="15" transform="rotate(-29.0625 341.005 656.338)" fill="url(#paint27_linear_232_182)" fill-opacity="0.04"/>
<rect x="350.235" y="672.946" width="1107.48" height="15" transform="rotate(-29.0625 350.235 672.946)" fill="url(#paint28_linear_232_182)" fill-opacity="0.04"/>
<rect x="359.464" y="689.554" width="1107.48" height="15" transform="rotate(-29.0625 359.464 689.554)" fill="url(#paint29_linear_232_182)" fill-opacity="0.04"/>
<rect x="368.694" y="706.161" width="1107.48" height="15" transform="rotate(-29.0625 368.694 706.161)" fill="url(#paint30_linear_232_182)" fill-opacity="0.04"/>
<rect x="377.923" y="722.769" width="1107.48" height="15" transform="rotate(-29.0625 377.923 722.769)" fill="url(#paint31_linear_232_182)" fill-opacity="0.04"/>
<rect x="387.153" y="739.376" width="1107.48" height="15" transform="rotate(-29.0625 387.153 739.376)" fill="url(#paint32_linear_232_182)" fill-opacity="0.04"/>
<rect x="396.382" y="755.984" width="1107.48" height="15" transform="rotate(-29.0625 396.382 755.984)" fill="url(#paint33_linear_232_182)" fill-opacity="0.04"/>
<rect x="405.612" y="772.592" width="1107.48" height="15" transform="rotate(-29.0625 405.612 772.592)" fill="url(#paint34_linear_232_182)" fill-opacity="0.04"/>
<rect x="414.841" y="789.2" width="1107.48" height="15" transform="rotate(-29.0625 414.841 789.2)" fill="url(#paint35_linear_232_182)" fill-opacity="0.04"/>
<rect x="424.071" y="805.808" width="1107.48" height="15" transform="rotate(-29.0625 424.071 805.808)" fill="url(#paint36_linear_232_182)" fill-opacity="0.04"/>
<rect x="433.3" y="822.415" width="1107.48" height="15" transform="rotate(-29.0625 433.3 822.415)" fill="url(#paint37_linear_232_182)" fill-opacity="0.04"/>
<rect x="442.53" y="839.023" width="1107.48" height="15" transform="rotate(-29.0625 442.53 839.023)" fill="url(#paint38_linear_232_182)" fill-opacity="0.04"/>
<rect x="451.759" y="855.631" width="1107.48" height="15" transform="rotate(-29.0625 451.759 855.631)" fill="url(#paint39_linear_232_182)" fill-opacity="0.04"/>
<rect x="460.989" y="872.238" width="1107.48" height="15" transform="rotate(-29.0625 460.989 872.238)" fill="url(#paint40_linear_232_182)" fill-opacity="0.04"/>
<rect x="470.218" y="888.846" width="1107.48" height="15" transform="rotate(-29.0625 470.218 888.846)" fill="url(#paint41_linear_232_182)" fill-opacity="0.04"/>
<rect x="479.448" y="905.454" width="1107.48" height="15" transform="rotate(-29.0625 479.448 905.454)" fill="url(#paint42_linear_232_182)" fill-opacity="0.04"/>
<rect x="488.677" y="922.062" width="1107.48" height="15" transform="rotate(-29.0625 488.677 922.062)" fill="url(#paint43_linear_232_182)" fill-opacity="0.04"/>
<rect x="497.906" y="938.669" width="1107.48" height="15" transform="rotate(-29.0625 497.906 938.669)" fill="url(#paint44_linear_232_182)" fill-opacity="0.04"/>
<rect x="507.136" y="955.277" width="1107.48" height="15" transform="rotate(-29.0625 507.136 955.277)" fill="url(#paint45_linear_232_182)" fill-opacity="0.04"/>
<rect x="516.365" y="971.885" width="1107.48" height="15" transform="rotate(-29.0625 516.365 971.885)" fill="url(#paint46_linear_232_182)" fill-opacity="0.04"/>
<rect x="525.595" y="988.493" width="1107.48" height="15" transform="rotate(-29.0625 525.595 988.493)" fill="url(#paint47_linear_232_182)" fill-opacity="0.04"/>
<rect x="534.824" y="1005.1" width="1107.48" height="15" transform="rotate(-29.0625 534.824 1005.1)" fill="url(#paint48_linear_232_182)" fill-opacity="0.04"/>
</g>
<path d="M932.904 -143.922C1145.88 -61.5229 1251.74 177.927 1169.34 390.904C1086.94 603.881 847.49 709.736 634.512 627.337C421.535 544.939 315.68 305.489 398.079 92.5121C480.477 -120.465 719.927 -226.32 932.904 -143.922ZM671.94 530.596C831.489 592.324 1010.87 513.024 1072.6 353.476C1134.32 193.927 1055.02 14.5473 895.476 -47.1803C735.927 -108.908 556.548 -29.6083 494.82 129.94C433.092 289.489 512.392 468.869 671.94 530.596Z" fill="url(#paint49_linear_232_182)"/>
<mask id="mask1_232_182" style="mask-type:alpha" maskUnits="userSpaceOnUse" x="370" y="-172" width="828" height="828">
<path d="M932.904 -143.922C1145.88 -61.5229 1251.74 177.927 1169.34 390.904C1086.94 603.881 847.49 709.736 634.512 627.337C421.535 544.939 315.68 305.489 398.079 92.5121C480.477 -120.465 719.927 -226.32 932.904 -143.922ZM671.94 530.596C831.489 592.324 1010.87 513.024 1072.6 353.476C1134.32 193.927 1055.02 14.5473 895.476 -47.1803C735.927 -108.908 556.548 -29.6083 494.82 129.94C433.092 289.489 512.392 468.869 671.94 530.596Z" fill="url(#paint50_linear_232_182)"/>
</mask>
<g mask="url(#mask1_232_182)">
<rect x="18.7504" y="699.256" width="1107.48" height="15" transform="rotate(-71.4872 18.7504 699.256)" fill="url(#paint51_linear_232_182)" fill-opacity="0.04"/>
<rect x="36.7672" y="705.289" width="1107.48" height="15" transform="rotate(-71.4872 36.7672 705.289)" fill="url(#paint52_linear_232_182)" fill-opacity="0.04"/>
<rect x="54.784" y="711.321" width="1107.48" height="15" transform="rotate(-71.4872 54.784 711.321)" fill="url(#paint53_linear_232_182)" fill-opacity="0.04"/>
<rect x="72.8008" y="717.354" width="1107.48" height="15" transform="rotate(-71.4872 72.8008 717.354)" fill="url(#paint54_linear_232_182)" fill-opacity="0.04"/>
<rect x="90.8176" y="723.387" width="1107.48" height="15" transform="rotate(-71.4872 90.8176 723.387)" fill="url(#paint55_linear_232_182)" fill-opacity="0.04"/>
<rect x="108.834" y="729.42" width="1107.48" height="15" transform="rotate(-71.4872 108.834 729.42)" fill="url(#paint56_linear_232_182)" fill-opacity="0.04"/>
<rect x="126.851" y="735.453" width="1107.48" height="15" transform="rotate(-71.4872 126.851 735.453)" fill="url(#paint57_linear_232_182)" fill-opacity="0.04"/>
<rect x="144.868" y="741.485" width="1107.48" height="15" transform="rotate(-71.4872 144.868 741.485)" fill="url(#paint58_linear_232_182)" fill-opacity="0.04"/>
<rect x="162.885" y="747.518" width="1107.48" height="15" transform="rotate(-71.4872 162.885 747.518)" fill="url(#paint59_linear_232_182)" fill-opacity="0.04"/>
<rect x="180.902" y="753.551" width="1107.48" height="15" transform="rotate(-71.4872 180.902 753.551)" fill="url(#paint60_linear_232_182)" fill-opacity="0.04"/>
<rect x="198.918" y="759.583" width="1107.48" height="15" transform="rotate(-71.4872 198.918 759.583)" fill="url(#paint61_linear_232_182)" fill-opacity="0.04"/>
<rect x="216.935" y="765.617" width="1107.48" height="15" transform="rotate(-71.4872 216.935 765.617)" fill="url(#paint62_linear_232_182)" fill-opacity="0.04"/>
<rect x="234.952" y="771.649" width="1107.48" height="15" transform="rotate(-71.4872 234.952 771.649)" fill="url(#paint63_linear_232_182)" fill-opacity="0.04"/>
<rect x="252.969" y="777.682" width="1107.48" height="15" transform="rotate(-71.4872 252.969 777.682)" fill="url(#paint64_linear_232_182)" fill-opacity="0.04"/>
<rect x="270.986" y="783.715" width="1107.48" height="15" transform="rotate(-71.4872 270.986 783.715)" fill="url(#paint65_linear_232_182)" fill-opacity="0.04"/>
<rect x="289.002" y="789.748" width="1107.48" height="15" transform="rotate(-71.4872 289.002 789.748)" fill="url(#paint66_linear_232_182)" fill-opacity="0.04"/>
<rect x="307.019" y="795.781" width="1107.48" height="15" transform="rotate(-71.4872 307.019 795.781)" fill="url(#paint67_linear_232_182)" fill-opacity="0.04"/>
<rect x="325.036" y="801.813" width="1107.48" height="15" transform="rotate(-71.4872 325.036 801.813)" fill="url(#paint68_linear_232_182)" fill-opacity="0.04"/>
<rect x="343.053" y="807.846" width="1107.48" height="15" transform="rotate(-71.4872 343.053 807.846)" fill="url(#paint69_linear_232_182)" fill-opacity="0.04"/>
<rect x="361.07" y="813.879" width="1107.48" height="15" transform="rotate(-71.4872 361.07 813.879)" fill="url(#paint70_linear_232_182)" fill-opacity="0.04"/>
<rect x="379.086" y="819.912" width="1107.48" height="15" transform="rotate(-71.4872 379.086 819.912)" fill="url(#paint71_linear_232_182)" fill-opacity="0.04"/>
<rect x="397.103" y="825.945" width="1107.48" height="15" transform="rotate(-71.4872 397.103 825.945)" fill="url(#paint72_linear_232_182)" fill-opacity="0.04"/>
<rect x="415.12" y="831.978" width="1107.48" height="15" transform="rotate(-71.4872 415.12 831.978)" fill="url(#paint73_linear_232_182)" fill-opacity="0.04"/>
<rect x="433.137" y="838.01" width="1107.48" height="15" transform="rotate(-71.4872 433.137 838.01)" fill="url(#paint74_linear_232_182)" fill-opacity="0.04"/>
<rect x="451.154" y="844.043" width="1107.48" height="15" transform="rotate(-71.4872 451.154 844.043)" fill="url(#paint75_linear_232_182)" fill-opacity="0.04"/>
<rect x="469.17" y="850.076" width="1107.48" height="15" transform="rotate(-71.4872 469.17 850.076)" fill="url(#paint76_linear_232_182)" fill-opacity="0.04"/>
<rect x="487.187" y="856.109" width="1107.48" height="15" transform="rotate(-71.4872 487.187 856.109)" fill="url(#paint77_linear_232_182)" fill-opacity="0.04"/>
<rect x="505.204" y="862.142" width="1107.48" height="15" transform="rotate(-71.4872 505.204 862.142)" fill="url(#paint78_linear_232_182)" fill-opacity="0.04"/>
<rect x="523.221" y="868.174" width="1107.48" height="15" transform="rotate(-71.4872 523.221 868.174)" fill="url(#paint79_linear_232_182)" fill-opacity="0.04"/>
<rect x="541.238" y="874.207" width="1107.48" height="15" transform="rotate(-71.4872 541.238 874.207)" fill="url(#paint80_linear_232_182)" fill-opacity="0.04"/>
<rect x="559.254" y="880.24" width="1107.48" height="15" transform="rotate(-71.4872 559.254 880.24)" fill="url(#paint81_linear_232_182)" fill-opacity="0.04"/>
<rect x="577.271" y="886.272" width="1107.48" height="15" transform="rotate(-71.4872 577.271 886.272)" fill="url(#paint82_linear_232_182)" fill-opacity="0.04"/>
<rect x="595.288" y="892.306" width="1107.48" height="15" transform="rotate(-71.4872 595.288 892.306)" fill="url(#paint83_linear_232_182)" fill-opacity="0.04"/>
<rect x="613.305" y="898.338" width="1107.48" height="15" transform="rotate(-71.4872 613.305 898.338)" fill="url(#paint84_linear_232_182)" fill-opacity="0.04"/>
<rect x="631.322" y="904.371" width="1107.48" height="15" transform="rotate(-71.4872 631.322 904.371)" fill="url(#paint85_linear_232_182)" fill-opacity="0.04"/>
<rect x="649.339" y="910.404" width="1107.48" height="15" transform="rotate(-71.4872 649.339 910.404)" fill="url(#paint86_linear_232_182)" fill-opacity="0.04"/>
<rect x="667.355" y="916.437" width="1107.48" height="15" transform="rotate(-71.4872 667.355 916.437)" fill="url(#paint87_linear_232_182)" fill-opacity="0.04"/>
<rect x="685.372" y="922.47" width="1107.48" height="15" transform="rotate(-71.4872 685.372 922.47)" fill="url(#paint88_linear_232_182)" fill-opacity="0.04"/>
<rect x="703.389" y="928.502" width="1107.48" height="15" transform="rotate(-71.4872 703.389 928.502)" fill="url(#paint89_linear_232_182)" fill-opacity="0.04"/>
<rect x="721.406" y="934.535" width="1107.48" height="15" transform="rotate(-71.4872 721.406 934.535)" fill="url(#paint90_linear_232_182)" fill-opacity="0.04"/>
<rect x="739.422" y="940.568" width="1107.48" height="15" transform="rotate(-71.4872 739.422 940.568)" fill="url(#paint91_linear_232_182)" fill-opacity="0.04"/>
<rect x="757.439" y="946.601" width="1107.48" height="15" transform="rotate(-71.4872 757.439 946.601)" fill="url(#paint92_linear_232_182)" fill-opacity="0.04"/>
<rect x="775.456" y="952.634" width="1107.48" height="15" transform="rotate(-71.4872 775.456 952.634)" fill="url(#paint93_linear_232_182)" fill-opacity="0.04"/>
<rect x="793.473" y="958.667" width="1107.48" height="15" transform="rotate(-71.4872 793.473 958.667)" fill="url(#paint94_linear_232_182)" fill-opacity="0.04"/>
<rect x="811.49" y="964.699" width="1107.48" height="15" transform="rotate(-71.4872 811.49 964.699)" fill="url(#paint95_linear_232_182)" fill-opacity="0.04"/>
</g>
<defs>
<linearGradient id="paint0_linear_232_182" x1="675.252" y1="23.4565" x2="892.165" y2="459.959" gradientUnits="userSpaceOnUse">
<stop stop-color="#76BBEC"/>
<stop offset="0.494792" stop-color="#5C3597" stop-opacity="0"/>
<stop offset="1" stop-color="#2D85D0"/>
</linearGradient>
<linearGradient id="paint1_linear_232_182" x1="675.252" y1="23.4565" x2="892.165" y2="459.959" gradientUnits="userSpaceOnUse">
<stop stop-color="#76BBEC"/>
<stop offset="0.494792" stop-color="#5C3597" stop-opacity="0"/>
<stop offset="1" stop-color="#2D85D0"/>
</linearGradient>
<linearGradient id="paint2_linear_232_182" x1="664.006" y1="241.145" x2="664.006" y2="256.145" gradientUnits="userSpaceOnUse">
<stop/>
<stop offset="1" stop-opacity="0"/>
</linearGradient>
<linearGradient id="paint3_linear_232_182" x1="673.235" y1="257.753" x2="673.235" y2="272.753" gradientUnits="userSpaceOnUse">
<stop/>
<stop offset="1" stop-opacity="0"/>
</linearGradient>
<linearGradient id="paint4_linear_232_182" x1="682.465" y1="274.36" x2="682.465" y2="289.36" gradientUnits="userSpaceOnUse">
<stop/>
<stop offset="1" stop-opacity="0"/>
</linearGradient>
<linearGradient id="paint5_linear_232_182" x1="691.694" y1="290.968" x2="691.694" y2="305.968" gradientUnits="userSpaceOnUse">
<stop/>
<stop offset="1" stop-opacity="0"/>
</linearGradient>
<linearGradient id="paint6_linear_232_182" x1="700.924" y1="307.576" x2="700.924" y2="322.576" gradientUnits="userSpaceOnUse">
<stop/>
<stop offset="1" stop-opacity="0"/>
</linearGradient>
<linearGradient id="paint7_linear_232_182" x1="710.153" y1="324.184" x2="710.153" y2="339.184" gradientUnits="userSpaceOnUse">
<stop/>
<stop offset="1" stop-opacity="0"/>
</linearGradient>
<linearGradient id="paint8_linear_232_182" x1="719.383" y1="340.792" x2="719.383" y2="355.792" gradientUnits="userSpaceOnUse">
<stop/>
<stop offset="1" stop-opacity="0"/>
</linearGradient>
<linearGradient id="paint9_linear_232_182" x1="728.612" y1="357.399" x2="728.612" y2="372.399" gradientUnits="userSpaceOnUse">
<stop/>
<stop offset="1" stop-opacity="0"/>
</linearGradient>
<linearGradient id="paint10_linear_232_182" x1="737.842" y1="374.007" x2="737.842" y2="389.007" gradientUnits="userSpaceOnUse">
<stop/>
<stop offset="1" stop-opacity="0"/>
</linearGradient>
<linearGradient id="paint11_linear_232_182" x1="747.071" y1="390.615" x2="747.071" y2="405.615" gradientUnits="userSpaceOnUse">
<stop/>
<stop offset="1" stop-opacity="0"/>
</linearGradient>
<linearGradient id="paint12_linear_232_182" x1="756.301" y1="407.222" x2="756.301" y2="422.222" gradientUnits="userSpaceOnUse">
<stop/>
<stop offset="1" stop-opacity="0"/>
</linearGradient>
<linearGradient id="paint13_linear_232_182" x1="765.53" y1="423.83" x2="765.53" y2="438.83" gradientUnits="userSpaceOnUse">
<stop/>
<stop offset="1" stop-opacity="0"/>
</linearGradient>
<linearGradient id="paint14_linear_232_182" x1="774.76" y1="440.438" x2="774.76" y2="455.437" gradientUnits="userSpaceOnUse">
<stop/>
<stop offset="1" stop-opacity="0"/>
</linearGradient>
<linearGradient id="paint15_linear_232_182" x1="783.989" y1="457.045" x2="783.989" y2="472.045" gradientUnits="userSpaceOnUse">
<stop/>
<stop offset="1" stop-opacity="0"/>
</linearGradient>
<linearGradient id="paint16_linear_232_182" x1="793.219" y1="473.653" x2="793.219" y2="488.653" gradientUnits="userSpaceOnUse">
<stop/>
<stop offset="1" stop-opacity="0"/>
</linearGradient>
<linearGradient id="paint17_linear_232_182" x1="802.448" y1="490.261" x2="802.448" y2="505.261" gradientUnits="userSpaceOnUse">
<stop/>
<stop offset="1" stop-opacity="0"/>
</linearGradient>
<linearGradient id="paint18_linear_232_182" x1="811.678" y1="506.869" x2="811.678" y2="521.869" gradientUnits="userSpaceOnUse">
<stop/>
<stop offset="1" stop-opacity="0"/>
</linearGradient>
<linearGradient id="paint19_linear_232_182" x1="820.907" y1="523.476" x2="820.907" y2="538.476" gradientUnits="userSpaceOnUse">
<stop/>
<stop offset="1" stop-opacity="0"/>
</linearGradient>
<linearGradient id="paint20_linear_232_182" x1="830.137" y1="540.084" x2="830.137" y2="555.084" gradientUnits="userSpaceOnUse">
<stop/>
<stop offset="1" stop-opacity="0"/>
</linearGradient>
<linearGradient id="paint21_linear_232_182" x1="839.366" y1="556.692" x2="839.366" y2="571.692" gradientUnits="userSpaceOnUse">
<stop/>
<stop offset="1" stop-opacity="0"/>
</linearGradient>
<linearGradient id="paint22_linear_232_182" x1="848.596" y1="573.299" x2="848.596" y2="588.299" gradientUnits="userSpaceOnUse">
<stop/>
<stop offset="1" stop-opacity="0"/>
</linearGradient>
<linearGradient id="paint23_linear_232_182" x1="857.825" y1="589.907" x2="857.825" y2="604.907" gradientUnits="userSpaceOnUse">
<stop/>
<stop offset="1" stop-opacity="0"/>
</linearGradient>
<linearGradient id="paint24_linear_232_182" x1="867.055" y1="606.515" x2="867.055" y2="621.515" gradientUnits="userSpaceOnUse">
<stop/>
<stop offset="1" stop-opacity="0"/>
</linearGradient>
<linearGradient id="paint25_linear_232_182" x1="876.284" y1="623.123" x2="876.284" y2="638.123" gradientUnits="userSpaceOnUse">
<stop/>
<stop offset="1" stop-opacity="0"/>
</linearGradient>
<linearGradient id="paint26_linear_232_182" x1="885.514" y1="639.73" x2="885.514" y2="654.73" gradientUnits="userSpaceOnUse">
<stop/>
<stop offset="1" stop-opacity="0"/>
</linearGradient>
<linearGradient id="paint27_linear_232_182" x1="894.743" y1="656.338" x2="894.743" y2="671.338" gradientUnits="userSpaceOnUse">
<stop/>
<stop offset="1" stop-opacity="0"/>
</linearGradient>
<linearGradient id="paint28_linear_232_182" x1="903.973" y1="672.946" x2="903.973" y2="687.946" gradientUnits="userSpaceOnUse">
<stop/>
<stop offset="1" stop-opacity="0"/>
</linearGradient>
<linearGradient id="paint29_linear_232_182" x1="913.202" y1="689.554" x2="913.202" y2="704.554" gradientUnits="userSpaceOnUse">
<stop/>
<stop offset="1" stop-opacity="0"/>
</linearGradient>
<linearGradient id="paint30_linear_232_182" x1="922.432" y1="706.161" x2="922.432" y2="721.161" gradientUnits="userSpaceOnUse">
<stop/>
<stop offset="1" stop-opacity="0"/>
</linearGradient>
<linearGradient id="paint31_linear_232_182" x1="931.661" y1="722.769" x2="931.661" y2="737.769" gradientUnits="userSpaceOnUse">
<stop/>
<stop offset="1" stop-opacity="0"/>
</linearGradient>
<linearGradient id="paint32_linear_232_182" x1="940.891" y1="739.376" x2="940.891" y2="754.376" gradientUnits="userSpaceOnUse">
<stop/>
<stop offset="1" stop-opacity="0"/>
</linearGradient>
<linearGradient id="paint33_linear_232_182" x1="950.12" y1="755.984" x2="950.12" y2="770.984" gradientUnits="userSpaceOnUse">
<stop/>
<stop offset="1" stop-opacity="0"/>
</linearGradient>
<linearGradient id="paint34_linear_232_182" x1="959.35" y1="772.592" x2="959.35" y2="787.592" gradientUnits="userSpaceOnUse">
<stop/>
<stop offset="1" stop-opacity="0"/>
</linearGradient>
<linearGradient id="paint35_linear_232_182" x1="968.579" y1="789.2" x2="968.579" y2="804.2" gradientUnits="userSpaceOnUse">
<stop/>
<stop offset="1" stop-opacity="0"/>
</linearGradient>
<linearGradient id="paint36_linear_232_182" x1="977.809" y1="805.808" x2="977.809" y2="820.808" gradientUnits="userSpaceOnUse">
<stop/>
<stop offset="1" stop-opacity="0"/>
</linearGradient>
<linearGradient id="paint37_linear_232_182" x1="987.038" y1="822.415" x2="987.038" y2="837.415" gradientUnits="userSpaceOnUse">
<stop/>
<stop offset="1" stop-opacity="0"/>
</linearGradient>
<linearGradient id="paint38_linear_232_182" x1="996.268" y1="839.023" x2="996.268" y2="854.023" gradientUnits="userSpaceOnUse">
<stop/>
<stop offset="1" stop-opacity="0"/>
</linearGradient>
<linearGradient id="paint39_linear_232_182" x1="1005.5" y1="855.631" x2="1005.5" y2="870.631" gradientUnits="userSpaceOnUse">
<stop/>
<stop offset="1" stop-opacity="0"/>
</linearGradient>
<linearGradient id="paint40_linear_232_182" x1="1014.73" y1="872.238" x2="1014.73" y2="887.238" gradientUnits="userSpaceOnUse">
<stop/>
<stop offset="1" stop-opacity="0"/>
</linearGradient>
<linearGradient id="paint41_linear_232_182" x1="1023.96" y1="888.846" x2="1023.96" y2="903.846" gradientUnits="userSpaceOnUse">
<stop/>
<stop offset="1" stop-opacity="0"/>
</linearGradient>
<linearGradient id="paint42_linear_232_182" x1="1033.19" y1="905.454" x2="1033.19" y2="920.454" gradientUnits="userSpaceOnUse">
<stop/>
<stop offset="1" stop-opacity="0"/>
</linearGradient>
<linearGradient id="paint43_linear_232_182" x1="1042.42" y1="922.062" x2="1042.42" y2="937.062" gradientUnits="userSpaceOnUse">
<stop/>
<stop offset="1" stop-opacity="0"/>
</linearGradient>
<linearGradient id="paint44_linear_232_182" x1="1051.64" y1="938.669" x2="1051.64" y2="953.669" gradientUnits="userSpaceOnUse">
<stop/>
<stop offset="1" stop-opacity="0"/>
</linearGradient>
<linearGradient id="paint45_linear_232_182" x1="1060.87" y1="955.277" x2="1060.87" y2="970.277" gradientUnits="userSpaceOnUse">
<stop/>
<stop offset="1" stop-opacity="0"/>
</linearGradient>
<linearGradient id="paint46_linear_232_182" x1="1070.1" y1="971.885" x2="1070.1" y2="986.885" gradientUnits="userSpaceOnUse">
<stop/>
<stop offset="1" stop-opacity="0"/>
</linearGradient>
<linearGradient id="paint47_linear_232_182" x1="1079.33" y1="988.493" x2="1079.33" y2="1003.49" gradientUnits="userSpaceOnUse">
<stop/>
<stop offset="1" stop-opacity="0"/>
</linearGradient>
<linearGradient id="paint48_linear_232_182" x1="1088.56" y1="1005.1" x2="1088.56" y2="1020.1" gradientUnits="userSpaceOnUse">
<stop/>
<stop offset="1" stop-opacity="0"/>
</linearGradient>
<linearGradient id="paint49_linear_232_182" x1="398.079" y1="92.5121" x2="1169.34" y2="390.904" gradientUnits="userSpaceOnUse">
<stop stop-color="#76BBEC"/>
<stop offset="0.494792" stop-color="#5C3597" stop-opacity="0"/>
<stop offset="1" stop-color="#2D85D0"/>
</linearGradient>
<linearGradient id="paint50_linear_232_182" x1="398.079" y1="92.5121" x2="1169.34" y2="390.904" gradientUnits="userSpaceOnUse">
<stop stop-color="#76BBEC"/>
<stop offset="0.494792" stop-color="#5C3597" stop-opacity="0"/>
<stop offset="1" stop-color="#2D85D0"/>
</linearGradient>
<linearGradient id="paint51_linear_232_182" x1="572.489" y1="699.256" x2="572.489" y2="714.256" gradientUnits="userSpaceOnUse">
<stop/>
<stop offset="1" stop-opacity="0"/>
</linearGradient>
<linearGradient id="paint52_linear_232_182" x1="590.505" y1="705.289" x2="590.505" y2="720.289" gradientUnits="userSpaceOnUse">
<stop/>
<stop offset="1" stop-opacity="0"/>
</linearGradient>
<linearGradient id="paint53_linear_232_182" x1="608.522" y1="711.321" x2="608.522" y2="726.321" gradientUnits="userSpaceOnUse">
<stop/>
<stop offset="1" stop-opacity="0"/>
</linearGradient>
<linearGradient id="paint54_linear_232_182" x1="626.539" y1="717.354" x2="626.539" y2="732.354" gradientUnits="userSpaceOnUse">
<stop/>
<stop offset="1" stop-opacity="0"/>
</linearGradient>
<linearGradient id="paint55_linear_232_182" x1="644.556" y1="723.387" x2="644.556" y2="738.387" gradientUnits="userSpaceOnUse">
<stop/>
<stop offset="1" stop-opacity="0"/>
</linearGradient>
<linearGradient id="paint56_linear_232_182" x1="662.573" y1="729.42" x2="662.573" y2="744.42" gradientUnits="userSpaceOnUse">
<stop/>
<stop offset="1" stop-opacity="0"/>
</linearGradient>
<linearGradient id="paint57_linear_232_182" x1="680.589" y1="735.453" x2="680.589" y2="750.453" gradientUnits="userSpaceOnUse">
<stop/>
<stop offset="1" stop-opacity="0"/>
</linearGradient>
<linearGradient id="paint58_linear_232_182" x1="698.606" y1="741.485" x2="698.606" y2="756.485" gradientUnits="userSpaceOnUse">
<stop/>
<stop offset="1" stop-opacity="0"/>
</linearGradient>
<linearGradient id="paint59_linear_232_182" x1="716.623" y1="747.518" x2="716.623" y2="762.518" gradientUnits="userSpaceOnUse">
<stop/>
<stop offset="1" stop-opacity="0"/>
</linearGradient>
<linearGradient id="paint60_linear_232_182" x1="734.64" y1="753.551" x2="734.64" y2="768.551" gradientUnits="userSpaceOnUse">
<stop/>
<stop offset="1" stop-opacity="0"/>
</linearGradient>
<linearGradient id="paint61_linear_232_182" x1="752.657" y1="759.583" x2="752.657" y2="774.583" gradientUnits="userSpaceOnUse">
<stop/>
<stop offset="1" stop-opacity="0"/>
</linearGradient>
<linearGradient id="paint62_linear_232_182" x1="770.673" y1="765.617" x2="770.673" y2="780.617" gradientUnits="userSpaceOnUse">
<stop/>
<stop offset="1" stop-opacity="0"/>
</linearGradient>
<linearGradient id="paint63_linear_232_182" x1="788.69" y1="771.649" x2="788.69" y2="786.649" gradientUnits="userSpaceOnUse">
<stop/>
<stop offset="1" stop-opacity="0"/>
</linearGradient>
<linearGradient id="paint64_linear_232_182" x1="806.707" y1="777.682" x2="806.707" y2="792.682" gradientUnits="userSpaceOnUse">
<stop/>
<stop offset="1" stop-opacity="0"/>
</linearGradient>
<linearGradient id="paint65_linear_232_182" x1="824.724" y1="783.715" x2="824.724" y2="798.715" gradientUnits="userSpaceOnUse">
<stop/>
<stop offset="1" stop-opacity="0"/>
</linearGradient>
<linearGradient id="paint66_linear_232_182" x1="842.741" y1="789.748" x2="842.741" y2="804.748" gradientUnits="userSpaceOnUse">
<stop/>
<stop offset="1" stop-opacity="0"/>
</linearGradient>
<linearGradient id="paint67_linear_232_182" x1="860.757" y1="795.781" x2="860.757" y2="810.781" gradientUnits="userSpaceOnUse">
<stop/>
<stop offset="1" stop-opacity="0"/>
</linearGradient>
<linearGradient id="paint68_linear_232_182" x1="878.774" y1="801.813" x2="878.774" y2="816.813" gradientUnits="userSpaceOnUse">
<stop/>
<stop offset="1" stop-opacity="0"/>
</linearGradient>
<linearGradient id="paint69_linear_232_182" x1="896.791" y1="807.846" x2="896.791" y2="822.846" gradientUnits="userSpaceOnUse">
<stop/>
<stop offset="1" stop-opacity="0"/>
</linearGradient>
<linearGradient id="paint70_linear_232_182" x1="914.808" y1="813.879" x2="914.808" y2="828.879" gradientUnits="userSpaceOnUse">
<stop/>
<stop offset="1" stop-opacity="0"/>
</linearGradient>
<linearGradient id="paint71_linear_232_182" x1="932.825" y1="819.912" x2="932.825" y2="834.912" gradientUnits="userSpaceOnUse">
<stop/>
<stop offset="1" stop-opacity="0"/>
</linearGradient>
<linearGradient id="paint72_linear_232_182" x1="950.842" y1="825.945" x2="950.842" y2="840.945" gradientUnits="userSpaceOnUse">
<stop/>
<stop offset="1" stop-opacity="0"/>
</linearGradient>
<linearGradient id="paint73_linear_232_182" x1="968.858" y1="831.978" x2="968.858" y2="846.978" gradientUnits="userSpaceOnUse">
<stop/>
<stop offset="1" stop-opacity="0"/>
</linearGradient>
<linearGradient id="paint74_linear_232_182" x1="986.875" y1="838.01" x2="986.875" y2="853.01" gradientUnits="userSpaceOnUse">
<stop/>
<stop offset="1" stop-opacity="0"/>
</linearGradient>
<linearGradient id="paint75_linear_232_182" x1="1004.89" y1="844.043" x2="1004.89" y2="859.043" gradientUnits="userSpaceOnUse">
<stop/>
<stop offset="1" stop-opacity="0"/>
</linearGradient>
<linearGradient id="paint76_linear_232_182" x1="1022.91" y1="850.076" x2="1022.91" y2="865.076" gradientUnits="userSpaceOnUse">
<stop/>
<stop offset="1" stop-opacity="0"/>
</linearGradient>
<linearGradient id="paint77_linear_232_182" x1="1040.93" y1="856.109" x2="1040.93" y2="871.109" gradientUnits="userSpaceOnUse">
<stop/>
<stop offset="1" stop-opacity="0"/>
</linearGradient>
<linearGradient id="paint78_linear_232_182" x1="1058.94" y1="862.142" x2="1058.94" y2="877.142" gradientUnits="userSpaceOnUse">
<stop/>
<stop offset="1" stop-opacity="0"/>
</linearGradient>
<linearGradient id="paint79_linear_232_182" x1="1076.96" y1="868.174" x2="1076.96" y2="883.174" gradientUnits="userSpaceOnUse">
<stop/>
<stop offset="1" stop-opacity="0"/>
</linearGradient>
<linearGradient id="paint80_linear_232_182" x1="1094.98" y1="874.207" x2="1094.98" y2="889.207" gradientUnits="userSpaceOnUse">
<stop/>
<stop offset="1" stop-opacity="0"/>
</linearGradient>
<linearGradient id="paint81_linear_232_182" x1="1112.99" y1="880.24" x2="1112.99" y2="895.24" gradientUnits="userSpaceOnUse">
<stop/>
<stop offset="1" stop-opacity="0"/>
</linearGradient>
<linearGradient id="paint82_linear_232_182" x1="1131.01" y1="886.272" x2="1131.01" y2="901.272" gradientUnits="userSpaceOnUse">
<stop/>
<stop offset="1" stop-opacity="0"/>
</linearGradient>
<linearGradient id="paint83_linear_232_182" x1="1149.03" y1="892.306" x2="1149.03" y2="907.306" gradientUnits="userSpaceOnUse">
<stop/>
<stop offset="1" stop-opacity="0"/>
</linearGradient>
<linearGradient id="paint84_linear_232_182" x1="1167.04" y1="898.338" x2="1167.04" y2="913.338" gradientUnits="userSpaceOnUse">
<stop/>
<stop offset="1" stop-opacity="0"/>
</linearGradient>
<linearGradient id="paint85_linear_232_182" x1="1185.06" y1="904.371" x2="1185.06" y2="919.371" gradientUnits="userSpaceOnUse">
<stop/>
<stop offset="1" stop-opacity="0"/>
</linearGradient>
<linearGradient id="paint86_linear_232_182" x1="1203.08" y1="910.404" x2="1203.08" y2="925.404" gradientUnits="userSpaceOnUse">
<stop/>
<stop offset="1" stop-opacity="0"/>
</linearGradient>
<linearGradient id="paint87_linear_232_182" x1="1221.09" y1="916.437" x2="1221.09" y2="931.437" gradientUnits="userSpaceOnUse">
<stop/>
<stop offset="1" stop-opacity="0"/>
</linearGradient>
<linearGradient id="paint88_linear_232_182" x1="1239.11" y1="922.47" x2="1239.11" y2="937.47" gradientUnits="userSpaceOnUse">
<stop/>
<stop offset="1" stop-opacity="0"/>
</linearGradient>
<linearGradient id="paint89_linear_232_182" x1="1257.13" y1="928.502" x2="1257.13" y2="943.502" gradientUnits="userSpaceOnUse">
<stop/>
<stop offset="1" stop-opacity="0"/>
</linearGradient>
<linearGradient id="paint90_linear_232_182" x1="1275.14" y1="934.535" x2="1275.14" y2="949.535" gradientUnits="userSpaceOnUse">
<stop/>
<stop offset="1" stop-opacity="0"/>
</linearGradient>
<linearGradient id="paint91_linear_232_182" x1="1293.16" y1="940.568" x2="1293.16" y2="955.568" gradientUnits="userSpaceOnUse">
<stop/>
<stop offset="1" stop-opacity="0"/>
</linearGradient>
<linearGradient id="paint92_linear_232_182" x1="1311.18" y1="946.601" x2="1311.18" y2="961.601" gradientUnits="userSpaceOnUse">
<stop/>
<stop offset="1" stop-opacity="0"/>
</linearGradient>
<linearGradient id="paint93_linear_232_182" x1="1329.19" y1="952.634" x2="1329.19" y2="967.634" gradientUnits="userSpaceOnUse">
<stop/>
<stop offset="1" stop-opacity="0"/>
</linearGradient>
<linearGradient id="paint94_linear_232_182" x1="1347.21" y1="958.667" x2="1347.21" y2="973.667" gradientUnits="userSpaceOnUse">
<stop/>
<stop offset="1" stop-opacity="0"/>
</linearGradient>
<linearGradient id="paint95_linear_232_182" x1="1365.23" y1="964.699" x2="1365.23" y2="979.699" gradientUnits="userSpaceOnUse">
<stop/>
<stop offset="1" stop-opacity="0"/>
</linearGradient>
</defs>
</svg>
