<svg width="40" height="40" viewBox="0 0 40 40" fill="none" xmlns="http://www.w3.org/2000/svg">
<g id="checked (2) 1" clip-path="url(#clip0_1_2265)">
<path id="Vector" d="M18.7532 1.55449C19.44 2.00988 20.5638 2.00988 21.2496 1.55449L23.0632 0.349487C23.7496 -0.106529 24.672 0.090268 25.1135 0.786284L26.28 2.62605C26.7214 3.32167 27.7474 3.77847 28.5598 3.64105L30.707 3.27722C31.5195 3.13964 32.2831 3.69378 32.4027 4.50902L32.7212 6.66003C32.842 7.47542 33.5927 8.31144 34.3912 8.51707L36.4982 9.0605C37.2968 9.26691 37.7682 10.0853 37.5464 10.8789L36.9628 12.9701C36.7413 13.7637 37.0878 14.8327 37.7336 15.3451L39.444 16.7019C40.0896 17.2143 40.1876 18.1525 39.6622 18.7879L38.2736 20.4641C37.7484 21.0989 37.631 22.2161 38.0124 22.9465L39.0209 24.8743C39.4024 25.6051 39.1115 26.5028 38.3733 26.8691L36.4227 27.8373C35.6845 28.2039 35.1233 29.1771 35.1747 29.9995L35.3095 32.1709C35.3617 32.9929 34.7295 33.6951 33.9056 33.7303L31.7313 33.8223C30.9081 33.8575 29.9995 34.5183 29.7117 35.2911L28.9552 37.3289C28.6674 38.1019 27.8055 38.4864 27.0392 38.1832L25.0135 37.3824C24.2477 37.0789 23.1487 37.3124 22.5719 37.9014L21.0505 39.4553C20.4734 40.0439 19.5301 40.0439 18.9527 39.4561L17.4288 37.9011C16.8517 37.3127 15.7527 37.0793 14.9864 37.3825L12.9617 38.1833C12.1955 38.4868 11.3335 38.1023 11.0463 37.3291L10.2881 35.2913C10.0006 34.5187 9.09204 33.8577 8.26845 33.8225L6.09486 33.7304C5.27103 33.6952 4.63962 32.993 4.69103 32.171L4.82704 29.9996C4.87822 29.1775 4.31626 28.204 3.57822 27.8375L1.62822 26.8693C0.890247 26.5028 0.59845 25.6054 0.980247 24.8745L1.98868 22.9467C2.37025 22.2163 2.2529 21.0991 1.72689 20.4649L0.338216 18.7865C-0.187409 18.1521 -0.088972 17.2139 0.556419 16.7015L2.2672 15.3447C2.91259 14.8323 3.25962 13.7639 3.03822 12.97L2.45322 10.8779C2.23165 10.0843 2.70322 9.26652 3.50103 9.06136L5.60962 8.51675C6.40743 8.31136 7.15923 7.47535 7.27962 6.65996L7.59783 4.50894C7.71845 3.69371 8.48165 3.13956 9.294 3.27714L11.4414 3.64097C12.254 3.77839 13.2799 3.3216 13.7206 2.62597L14.8867 0.786206C15.3274 0.09019 16.2505 -0.106607 16.9374 0.349409L18.7532 1.55449Z" fill="url(#paint0_linear_1_2265)"/>
<path id="Vector_2" d="M32.9414 20.0219C32.9414 27.1693 27.1468 32.9633 20 32.9633C12.8536 32.9633 7.05899 27.1693 7.05899 20.0219C7.05899 12.8767 12.8534 7.08252 20 7.08252C27.1468 7.08252 32.9414 12.8767 32.9414 20.0219Z" fill="#1CEFF4"/>
<path id="Vector_3" d="M17.8424 26.0671L12.6624 20.8869L14.3882 19.1603L17.8424 22.6139L25.612 14.8433L27.3378 16.5704L17.8424 26.0671Z" fill="#620D98"/>
</g>
<defs>
<linearGradient id="paint0_linear_1_2265" x1="0.000182509" y1="39.8969" x2="47.5044" y2="25.6107" gradientUnits="userSpaceOnUse">
<stop stop-color="#631097"/>
<stop offset="0.338947" stop-color="#5C3597"/>
<stop offset="1" stop-color="#5C6A9C"/>
</linearGradient>
<clipPath id="clip0_1_2265">
<rect width="40" height="40" fill="white"/>
</clipPath>
</defs>
</svg>
