<svg width="172" height="172" viewBox="0 0 172 172" fill="none" xmlns="http://www.w3.org/2000/svg">
<path d="M143.451 57.4509C159.218 89.1801 146.278 127.684 114.549 143.451C82.8201 159.218 44.3166 146.279 28.5492 114.549C12.7819 82.8202 25.7216 44.3167 57.4508 28.5494C89.1799 12.7821 127.683 25.7217 143.451 57.4509ZM42.9617 107.387C54.7735 131.157 83.6178 140.85 107.387 129.038C131.157 117.227 140.85 88.3824 129.038 64.6129C117.227 40.8435 88.3822 31.15 64.6128 42.9618C40.8434 54.7737 31.1498 83.618 42.9617 107.387Z" fill="url(#paint0_linear_1_2067)"/>
<mask id="mask0_1_2067" style="mask-type:alpha" maskUnits="userSpaceOnUse" x="21" y="21" width="130" height="130">
<path d="M143.451 57.4509C159.218 89.1801 146.278 127.684 114.549 143.451C82.8201 159.218 44.3166 146.279 28.5492 114.549C12.7819 82.8202 25.7216 44.3167 57.4508 28.5494C89.1799 12.7821 127.683 25.7217 143.451 57.4509ZM42.9617 107.387C54.7735 131.157 83.6178 140.85 107.387 129.038C131.157 117.227 140.85 88.3824 129.038 64.6129C117.227 40.8435 88.3822 31.15 64.6128 42.9618C40.8434 54.7737 31.1498 83.618 42.9617 107.387Z" fill="url(#paint1_linear_1_2067)"/>
</mask>
<g mask="url(#mask0_1_2067)">
<rect x="-91.271" y="85.8521" width="291.523" height="3.94848" transform="rotate(-29.0625 -91.271 85.8521)" fill="url(#paint2_linear_1_2067)" fill-opacity="0.04"/>
<rect x="-88.8415" y="90.2234" width="291.523" height="3.94848" transform="rotate(-29.0625 -88.8415 90.2234)" fill="url(#paint3_linear_1_2067)" fill-opacity="0.04"/>
<rect x="-86.412" y="94.5952" width="291.523" height="3.94848" transform="rotate(-29.0625 -86.412 94.5952)" fill="url(#paint4_linear_1_2067)" fill-opacity="0.04"/>
<rect x="-83.9825" y="98.967" width="291.523" height="3.94848" transform="rotate(-29.0625 -83.9825 98.967)" fill="url(#paint5_linear_1_2067)" fill-opacity="0.04"/>
<rect x="-81.553" y="103.339" width="291.523" height="3.94848" transform="rotate(-29.0625 -81.553 103.339)" fill="url(#paint6_linear_1_2067)" fill-opacity="0.04"/>
<rect x="-79.1235" y="107.71" width="291.523" height="3.94848" transform="rotate(-29.0625 -79.1235 107.71)" fill="url(#paint7_linear_1_2067)" fill-opacity="0.04"/>
<rect x="-76.694" y="112.082" width="291.523" height="3.94848" transform="rotate(-29.0625 -76.694 112.082)" fill="url(#paint8_linear_1_2067)" fill-opacity="0.04"/>
<rect x="-74.2645" y="116.454" width="291.523" height="3.94848" transform="rotate(-29.0625 -74.2645 116.454)" fill="url(#paint9_linear_1_2067)" fill-opacity="0.04"/>
<rect x="-71.8351" y="120.825" width="291.523" height="3.94848" transform="rotate(-29.0625 -71.8351 120.825)" fill="url(#paint10_linear_1_2067)" fill-opacity="0.04"/>
<rect x="-69.4055" y="125.197" width="291.523" height="3.94848" transform="rotate(-29.0625 -69.4055 125.197)" fill="url(#paint11_linear_1_2067)" fill-opacity="0.04"/>
<rect x="-66.976" y="129.569" width="291.523" height="3.94848" transform="rotate(-29.0625 -66.976 129.569)" fill="url(#paint12_linear_1_2067)" fill-opacity="0.04"/>
<rect x="-64.5465" y="133.94" width="291.523" height="3.94848" transform="rotate(-29.0625 -64.5465 133.94)" fill="url(#paint13_linear_1_2067)" fill-opacity="0.04"/>
<rect x="-62.117" y="138.312" width="291.523" height="3.94848" transform="rotate(-29.0625 -62.117 138.312)" fill="url(#paint14_linear_1_2067)" fill-opacity="0.04"/>
<rect x="-59.6876" y="142.684" width="291.523" height="3.94848" transform="rotate(-29.0625 -59.6876 142.684)" fill="url(#paint15_linear_1_2067)" fill-opacity="0.04"/>
<rect x="-57.2581" y="147.056" width="291.523" height="3.94848" transform="rotate(-29.0625 -57.2581 147.056)" fill="url(#paint16_linear_1_2067)" fill-opacity="0.04"/>
<rect x="-54.8286" y="151.427" width="291.523" height="3.94848" transform="rotate(-29.0625 -54.8286 151.427)" fill="url(#paint17_linear_1_2067)" fill-opacity="0.04"/>
<rect x="-52.399" y="155.799" width="291.523" height="3.94848" transform="rotate(-29.0625 -52.399 155.799)" fill="url(#paint18_linear_1_2067)" fill-opacity="0.04"/>
<rect x="-49.9695" y="160.17" width="291.523" height="3.94848" transform="rotate(-29.0625 -49.9695 160.17)" fill="url(#paint19_linear_1_2067)" fill-opacity="0.04"/>
<rect x="-47.5401" y="164.542" width="291.523" height="3.94848" transform="rotate(-29.0625 -47.5401 164.542)" fill="url(#paint20_linear_1_2067)" fill-opacity="0.04"/>
<rect x="-45.1106" y="168.914" width="291.523" height="3.94848" transform="rotate(-29.0625 -45.1106 168.914)" fill="url(#paint21_linear_1_2067)" fill-opacity="0.04"/>
<rect x="-42.6811" y="173.285" width="291.523" height="3.94848" transform="rotate(-29.0625 -42.6811 173.285)" fill="url(#paint22_linear_1_2067)" fill-opacity="0.04"/>
<rect x="-40.2516" y="177.657" width="291.523" height="3.94848" transform="rotate(-29.0625 -40.2516 177.657)" fill="url(#paint23_linear_1_2067)" fill-opacity="0.04"/>
<rect x="-37.8221" y="182.029" width="291.523" height="3.94848" transform="rotate(-29.0625 -37.8221 182.029)" fill="url(#paint24_linear_1_2067)" fill-opacity="0.04"/>
<rect x="-35.3925" y="186.401" width="291.523" height="3.94848" transform="rotate(-29.0625 -35.3925 186.401)" fill="url(#paint25_linear_1_2067)" fill-opacity="0.04"/>
<rect x="-32.9631" y="190.772" width="291.523" height="3.94848" transform="rotate(-29.0625 -32.9631 190.772)" fill="url(#paint26_linear_1_2067)" fill-opacity="0.04"/>
<rect x="-30.5336" y="195.144" width="291.523" height="3.94848" transform="rotate(-29.0625 -30.5336 195.144)" fill="url(#paint27_linear_1_2067)" fill-opacity="0.04"/>
<rect x="-28.1041" y="199.516" width="291.523" height="3.94848" transform="rotate(-29.0625 -28.1041 199.516)" fill="url(#paint28_linear_1_2067)" fill-opacity="0.04"/>
<rect x="-25.6746" y="203.887" width="291.523" height="3.94848" transform="rotate(-29.0625 -25.6746 203.887)" fill="url(#paint29_linear_1_2067)" fill-opacity="0.04"/>
<rect x="-23.2451" y="208.259" width="291.523" height="3.94848" transform="rotate(-29.0625 -23.2451 208.259)" fill="url(#paint30_linear_1_2067)" fill-opacity="0.04"/>
<rect x="-20.8156" y="212.631" width="291.523" height="3.94848" transform="rotate(-29.0625 -20.8156 212.631)" fill="url(#paint31_linear_1_2067)" fill-opacity="0.04"/>
<rect x="-18.3861" y="217.002" width="291.523" height="3.94848" transform="rotate(-29.0625 -18.3861 217.002)" fill="url(#paint32_linear_1_2067)" fill-opacity="0.04"/>
<rect x="-15.9566" y="221.374" width="291.523" height="3.94848" transform="rotate(-29.0625 -15.9566 221.374)" fill="url(#paint33_linear_1_2067)" fill-opacity="0.04"/>
<rect x="-13.5271" y="225.746" width="291.523" height="3.94848" transform="rotate(-29.0625 -13.5271 225.746)" fill="url(#paint34_linear_1_2067)" fill-opacity="0.04"/>
<rect x="-11.0976" y="230.117" width="291.523" height="3.94848" transform="rotate(-29.0625 -11.0976 230.117)" fill="url(#paint35_linear_1_2067)" fill-opacity="0.04"/>
<rect x="-8.66809" y="234.489" width="291.523" height="3.94848" transform="rotate(-29.0625 -8.66809 234.489)" fill="url(#paint36_linear_1_2067)" fill-opacity="0.04"/>
<rect x="-6.23859" y="238.861" width="291.523" height="3.94848" transform="rotate(-29.0625 -6.23859 238.861)" fill="url(#paint37_linear_1_2067)" fill-opacity="0.04"/>
<rect x="-3.80908" y="243.233" width="291.523" height="3.94848" transform="rotate(-29.0625 -3.80908 243.233)" fill="url(#paint38_linear_1_2067)" fill-opacity="0.04"/>
<rect x="-1.37958" y="247.604" width="291.523" height="3.94848" transform="rotate(-29.0625 -1.37958 247.604)" fill="url(#paint39_linear_1_2067)" fill-opacity="0.04"/>
<rect x="1.04987" y="251.976" width="291.523" height="3.94848" transform="rotate(-29.0625 1.04987 251.976)" fill="url(#paint40_linear_1_2067)" fill-opacity="0.04"/>
<rect x="3.47943" y="256.347" width="291.523" height="3.94848" transform="rotate(-29.0625 3.47943 256.347)" fill="url(#paint41_linear_1_2067)" fill-opacity="0.04"/>
<rect x="5.90887" y="260.719" width="291.523" height="3.94848" transform="rotate(-29.0625 5.90887 260.719)" fill="url(#paint42_linear_1_2067)" fill-opacity="0.04"/>
<rect x="8.33838" y="265.091" width="291.523" height="3.94848" transform="rotate(-29.0625 8.33838 265.091)" fill="url(#paint43_linear_1_2067)" fill-opacity="0.04"/>
<rect x="10.7679" y="269.462" width="291.523" height="3.94848" transform="rotate(-29.0625 10.7679 269.462)" fill="url(#paint44_linear_1_2067)" fill-opacity="0.04"/>
<rect x="13.1974" y="273.834" width="291.523" height="3.94848" transform="rotate(-29.0625 13.1974 273.834)" fill="url(#paint45_linear_1_2067)" fill-opacity="0.04"/>
<rect x="15.6269" y="278.206" width="291.523" height="3.94848" transform="rotate(-29.0625 15.6269 278.206)" fill="url(#paint46_linear_1_2067)" fill-opacity="0.04"/>
<rect x="18.0564" y="282.578" width="291.523" height="3.94848" transform="rotate(-29.0625 18.0564 282.578)" fill="url(#paint47_linear_1_2067)" fill-opacity="0.04"/>
<rect x="20.4859" y="286.949" width="291.523" height="3.94848" transform="rotate(-29.0625 20.4859 286.949)" fill="url(#paint48_linear_1_2067)" fill-opacity="0.04"/>
<rect x="22.9154" y="291.321" width="291.523" height="3.94848" transform="rotate(-29.0625 22.9154 291.321)" fill="url(#paint49_linear_1_2067)" fill-opacity="0.04"/>
</g>
<defs>
<linearGradient id="paint0_linear_1_2067" x1="57.4508" y1="28.5494" x2="114.549" y2="143.451" gradientUnits="userSpaceOnUse">
<stop stop-color="#76BBEC"/>
<stop offset="0.494792" stop-color="#5C3597" stop-opacity="0"/>
<stop offset="1" stop-color="#2D85D0"/>
</linearGradient>
<linearGradient id="paint1_linear_1_2067" x1="57.4508" y1="28.5494" x2="114.549" y2="143.451" gradientUnits="userSpaceOnUse">
<stop stop-color="#76BBEC"/>
<stop offset="0.494792" stop-color="#5C3597" stop-opacity="0"/>
<stop offset="1" stop-color="#2D85D0"/>
</linearGradient>
<linearGradient id="paint2_linear_1_2067" x1="54.4906" y1="85.8521" x2="54.4906" y2="89.8005" gradientUnits="userSpaceOnUse">
<stop/>
<stop offset="1" stop-opacity="0"/>
</linearGradient>
<linearGradient id="paint3_linear_1_2067" x1="56.9201" y1="90.2234" x2="56.9201" y2="94.1719" gradientUnits="userSpaceOnUse">
<stop/>
<stop offset="1" stop-opacity="0"/>
</linearGradient>
<linearGradient id="paint4_linear_1_2067" x1="59.3496" y1="94.5952" x2="59.3496" y2="98.5437" gradientUnits="userSpaceOnUse">
<stop/>
<stop offset="1" stop-opacity="0"/>
</linearGradient>
<linearGradient id="paint5_linear_1_2067" x1="61.7791" y1="98.967" x2="61.7791" y2="102.916" gradientUnits="userSpaceOnUse">
<stop/>
<stop offset="1" stop-opacity="0"/>
</linearGradient>
<linearGradient id="paint6_linear_1_2067" x1="64.2086" y1="103.339" x2="64.2086" y2="107.287" gradientUnits="userSpaceOnUse">
<stop/>
<stop offset="1" stop-opacity="0"/>
</linearGradient>
<linearGradient id="paint7_linear_1_2067" x1="66.6381" y1="107.71" x2="66.6381" y2="111.659" gradientUnits="userSpaceOnUse">
<stop/>
<stop offset="1" stop-opacity="0"/>
</linearGradient>
<linearGradient id="paint8_linear_1_2067" x1="69.0676" y1="112.082" x2="69.0676" y2="116.03" gradientUnits="userSpaceOnUse">
<stop/>
<stop offset="1" stop-opacity="0"/>
</linearGradient>
<linearGradient id="paint9_linear_1_2067" x1="71.4971" y1="116.454" x2="71.4971" y2="120.402" gradientUnits="userSpaceOnUse">
<stop/>
<stop offset="1" stop-opacity="0"/>
</linearGradient>
<linearGradient id="paint10_linear_1_2067" x1="73.9265" y1="120.825" x2="73.9265" y2="124.774" gradientUnits="userSpaceOnUse">
<stop/>
<stop offset="1" stop-opacity="0"/>
</linearGradient>
<linearGradient id="paint11_linear_1_2067" x1="76.356" y1="125.197" x2="76.356" y2="129.146" gradientUnits="userSpaceOnUse">
<stop/>
<stop offset="1" stop-opacity="0"/>
</linearGradient>
<linearGradient id="paint12_linear_1_2067" x1="78.7856" y1="129.569" x2="78.7856" y2="133.517" gradientUnits="userSpaceOnUse">
<stop/>
<stop offset="1" stop-opacity="0"/>
</linearGradient>
<linearGradient id="paint13_linear_1_2067" x1="81.2151" y1="133.94" x2="81.2151" y2="137.889" gradientUnits="userSpaceOnUse">
<stop/>
<stop offset="1" stop-opacity="0"/>
</linearGradient>
<linearGradient id="paint14_linear_1_2067" x1="83.6446" y1="138.312" x2="83.6446" y2="142.26" gradientUnits="userSpaceOnUse">
<stop/>
<stop offset="1" stop-opacity="0"/>
</linearGradient>
<linearGradient id="paint15_linear_1_2067" x1="86.074" y1="142.684" x2="86.074" y2="146.632" gradientUnits="userSpaceOnUse">
<stop/>
<stop offset="1" stop-opacity="0"/>
</linearGradient>
<linearGradient id="paint16_linear_1_2067" x1="88.5035" y1="147.056" x2="88.5035" y2="151.004" gradientUnits="userSpaceOnUse">
<stop/>
<stop offset="1" stop-opacity="0"/>
</linearGradient>
<linearGradient id="paint17_linear_1_2067" x1="90.933" y1="151.427" x2="90.933" y2="155.375" gradientUnits="userSpaceOnUse">
<stop/>
<stop offset="1" stop-opacity="0"/>
</linearGradient>
<linearGradient id="paint18_linear_1_2067" x1="93.3625" y1="155.799" x2="93.3625" y2="159.747" gradientUnits="userSpaceOnUse">
<stop/>
<stop offset="1" stop-opacity="0"/>
</linearGradient>
<linearGradient id="paint19_linear_1_2067" x1="95.7921" y1="160.17" x2="95.7921" y2="164.119" gradientUnits="userSpaceOnUse">
<stop/>
<stop offset="1" stop-opacity="0"/>
</linearGradient>
<linearGradient id="paint20_linear_1_2067" x1="98.2215" y1="164.542" x2="98.2215" y2="168.491" gradientUnits="userSpaceOnUse">
<stop/>
<stop offset="1" stop-opacity="0"/>
</linearGradient>
<linearGradient id="paint21_linear_1_2067" x1="100.651" y1="168.914" x2="100.651" y2="172.862" gradientUnits="userSpaceOnUse">
<stop/>
<stop offset="1" stop-opacity="0"/>
</linearGradient>
<linearGradient id="paint22_linear_1_2067" x1="103.081" y1="173.285" x2="103.081" y2="177.234" gradientUnits="userSpaceOnUse">
<stop/>
<stop offset="1" stop-opacity="0"/>
</linearGradient>
<linearGradient id="paint23_linear_1_2067" x1="105.51" y1="177.657" x2="105.51" y2="181.606" gradientUnits="userSpaceOnUse">
<stop/>
<stop offset="1" stop-opacity="0"/>
</linearGradient>
<linearGradient id="paint24_linear_1_2067" x1="107.94" y1="182.029" x2="107.94" y2="185.978" gradientUnits="userSpaceOnUse">
<stop/>
<stop offset="1" stop-opacity="0"/>
</linearGradient>
<linearGradient id="paint25_linear_1_2067" x1="110.369" y1="186.401" x2="110.369" y2="190.349" gradientUnits="userSpaceOnUse">
<stop/>
<stop offset="1" stop-opacity="0"/>
</linearGradient>
<linearGradient id="paint26_linear_1_2067" x1="112.799" y1="190.772" x2="112.799" y2="194.721" gradientUnits="userSpaceOnUse">
<stop/>
<stop offset="1" stop-opacity="0"/>
</linearGradient>
<linearGradient id="paint27_linear_1_2067" x1="115.228" y1="195.144" x2="115.228" y2="199.093" gradientUnits="userSpaceOnUse">
<stop/>
<stop offset="1" stop-opacity="0"/>
</linearGradient>
<linearGradient id="paint28_linear_1_2067" x1="117.658" y1="199.516" x2="117.658" y2="203.464" gradientUnits="userSpaceOnUse">
<stop/>
<stop offset="1" stop-opacity="0"/>
</linearGradient>
<linearGradient id="paint29_linear_1_2067" x1="120.087" y1="203.887" x2="120.087" y2="207.836" gradientUnits="userSpaceOnUse">
<stop/>
<stop offset="1" stop-opacity="0"/>
</linearGradient>
<linearGradient id="paint30_linear_1_2067" x1="122.517" y1="208.259" x2="122.517" y2="212.207" gradientUnits="userSpaceOnUse">
<stop/>
<stop offset="1" stop-opacity="0"/>
</linearGradient>
<linearGradient id="paint31_linear_1_2067" x1="124.946" y1="212.631" x2="124.946" y2="216.579" gradientUnits="userSpaceOnUse">
<stop/>
<stop offset="1" stop-opacity="0"/>
</linearGradient>
<linearGradient id="paint32_linear_1_2067" x1="127.375" y1="217.002" x2="127.375" y2="220.951" gradientUnits="userSpaceOnUse">
<stop/>
<stop offset="1" stop-opacity="0"/>
</linearGradient>
<linearGradient id="paint33_linear_1_2067" x1="129.805" y1="221.374" x2="129.805" y2="225.323" gradientUnits="userSpaceOnUse">
<stop/>
<stop offset="1" stop-opacity="0"/>
</linearGradient>
<linearGradient id="paint34_linear_1_2067" x1="132.234" y1="225.746" x2="132.234" y2="229.694" gradientUnits="userSpaceOnUse">
<stop/>
<stop offset="1" stop-opacity="0"/>
</linearGradient>
<linearGradient id="paint35_linear_1_2067" x1="134.664" y1="230.117" x2="134.664" y2="234.066" gradientUnits="userSpaceOnUse">
<stop/>
<stop offset="1" stop-opacity="0"/>
</linearGradient>
<linearGradient id="paint36_linear_1_2067" x1="137.094" y1="234.489" x2="137.094" y2="238.437" gradientUnits="userSpaceOnUse">
<stop/>
<stop offset="1" stop-opacity="0"/>
</linearGradient>
<linearGradient id="paint37_linear_1_2067" x1="139.523" y1="238.861" x2="139.523" y2="242.809" gradientUnits="userSpaceOnUse">
<stop/>
<stop offset="1" stop-opacity="0"/>
</linearGradient>
<linearGradient id="paint38_linear_1_2067" x1="141.953" y1="243.233" x2="141.953" y2="247.181" gradientUnits="userSpaceOnUse">
<stop/>
<stop offset="1" stop-opacity="0"/>
</linearGradient>
<linearGradient id="paint39_linear_1_2067" x1="144.382" y1="247.604" x2="144.382" y2="251.552" gradientUnits="userSpaceOnUse">
<stop/>
<stop offset="1" stop-opacity="0"/>
</linearGradient>
<linearGradient id="paint40_linear_1_2067" x1="146.811" y1="251.976" x2="146.811" y2="255.924" gradientUnits="userSpaceOnUse">
<stop/>
<stop offset="1" stop-opacity="0"/>
</linearGradient>
<linearGradient id="paint41_linear_1_2067" x1="149.241" y1="256.347" x2="149.241" y2="260.296" gradientUnits="userSpaceOnUse">
<stop/>
<stop offset="1" stop-opacity="0"/>
</linearGradient>
<linearGradient id="paint42_linear_1_2067" x1="151.67" y1="260.719" x2="151.67" y2="264.667" gradientUnits="userSpaceOnUse">
<stop/>
<stop offset="1" stop-opacity="0"/>
</linearGradient>
<linearGradient id="paint43_linear_1_2067" x1="154.1" y1="265.091" x2="154.1" y2="269.039" gradientUnits="userSpaceOnUse">
<stop/>
<stop offset="1" stop-opacity="0"/>
</linearGradient>
<linearGradient id="paint44_linear_1_2067" x1="156.529" y1="269.462" x2="156.529" y2="273.411" gradientUnits="userSpaceOnUse">
<stop/>
<stop offset="1" stop-opacity="0"/>
</linearGradient>
<linearGradient id="paint45_linear_1_2067" x1="158.959" y1="273.834" x2="158.959" y2="277.783" gradientUnits="userSpaceOnUse">
<stop/>
<stop offset="1" stop-opacity="0"/>
</linearGradient>
<linearGradient id="paint46_linear_1_2067" x1="161.388" y1="278.206" x2="161.388" y2="282.155" gradientUnits="userSpaceOnUse">
<stop/>
<stop offset="1" stop-opacity="0"/>
</linearGradient>
<linearGradient id="paint47_linear_1_2067" x1="163.818" y1="282.578" x2="163.818" y2="286.526" gradientUnits="userSpaceOnUse">
<stop/>
<stop offset="1" stop-opacity="0"/>
</linearGradient>
<linearGradient id="paint48_linear_1_2067" x1="166.247" y1="286.949" x2="166.247" y2="290.898" gradientUnits="userSpaceOnUse">
<stop/>
<stop offset="1" stop-opacity="0"/>
</linearGradient>
<linearGradient id="paint49_linear_1_2067" x1="168.677" y1="291.321" x2="168.677" y2="295.27" gradientUnits="userSpaceOnUse">
<stop/>
<stop offset="1" stop-opacity="0"/>
</linearGradient>
</defs>
</svg>
