<svg width="54" height="54" viewBox="0 0 54 54" fill="none" xmlns="http://www.w3.org/2000/svg">
<g id="money (1) 1">
<g id="Group">
<g id="Group_2">
<g id="Group_3">
<path id="Vector" d="M53.9242 30.057C53.9241 30.0567 53.9241 30.0566 53.9239 30.0564L43.7285 4.45652C43.5122 3.91259 42.8956 3.64706 42.3517 3.86344C42.3513 3.86357 42.3509 3.8637 42.3505 3.86397L0.989012 20.3337C0.820334 20.4066 0.674049 20.5229 0.564998 20.6708C0.221017 20.8496 0.00371012 21.2033 0 21.5909V49.1518C0 49.7372 0.47463 50.2118 1.06003 50.2118H45.5815C46.1669 50.2118 46.6415 49.7372 46.6415 49.1518V34.0993L53.3324 31.4344C53.8762 31.2175 54.1411 30.6008 53.9242 30.057ZM44.5214 48.0918H2.12007V22.651H44.5214V48.0918ZM17.6867 20.5362L35.4359 13.4636C37.02 15.1287 39.2149 16.075 41.5131 16.084L43.2833 20.5362H17.6867ZM46.6415 31.8224V21.5909C46.6415 21.0055 46.1669 20.5309 45.5815 20.5309H45.5645L43.3183 14.8894C43.2934 14.8423 43.2644 14.7976 43.2314 14.7558C43.1177 14.2453 42.6449 13.8969 42.1236 13.9396C39.9853 14.1345 37.8934 13.2337 36.5659 11.546C36.2355 11.1383 35.6549 11.037 35.2059 11.3086C35.1555 11.3145 35.1056 11.3238 35.0564 11.3361L13.3872 19.9648C13.1249 20.0676 12.9152 20.2716 12.8052 20.5309H6.22452L42.1512 6.22572L51.5632 29.8592L46.6415 31.8224Z" fill="#620D98"/>
<path id="Vector_2" d="M4.99698 40.9355C7.05503 41.5438 8.66549 43.1523 9.27634 45.2095C9.4103 45.6586 9.82331 45.9662 10.2918 45.9664C10.3468 45.9629 10.4014 45.9547 10.4551 45.942C10.5027 45.9555 10.5513 45.9654 10.6003 45.9717H36.0411C36.0849 45.966 36.1281 45.9571 36.1705 45.9452C36.7001 46.074 37.2338 45.7492 37.3627 45.2196C37.3631 45.2176 37.3637 45.2157 37.3641 45.2138C37.9733 43.1544 39.584 41.5436 41.6434 40.9344C42.1428 40.7817 42.4532 40.2841 42.3706 39.7684C42.3848 39.7169 42.395 39.6645 42.4013 39.6115V31.1312C42.3951 31.0781 42.3845 31.0256 42.3695 30.9743C42.4526 30.4585 42.1422 29.9605 41.6424 29.8083C39.583 29.1992 37.9727 27.5878 37.3651 25.5279C37.2117 25.025 36.7091 24.7139 36.1906 24.8007C36.1416 24.787 36.0916 24.7771 36.0411 24.771H10.6003C10.5469 24.7774 10.494 24.788 10.4424 24.8028C9.9268 24.7206 9.42938 25.0308 9.27634 25.53C8.66668 27.589 7.05609 29.1992 4.99698 29.8083C4.49757 29.9609 4.18724 30.4586 4.26979 30.9743C4.25601 31.0259 4.24607 31.0782 4.24011 31.1312V39.6115C4.24621 39.6613 4.25615 39.7106 4.26979 39.7588C4.18287 40.2778 4.49386 40.7811 4.99698 40.9355ZM6.36018 31.5616C8.48873 30.7067 10.1758 29.0196 11.0307 26.8911H35.6097C36.465 29.0196 38.1525 30.7067 40.2813 31.5616V39.1811C38.1534 40.0369 36.4666 41.7237 35.6108 43.8516H11.0307C10.1748 41.7237 8.48807 40.0369 6.36018 39.1811V31.5616Z" fill="#620D98"/>
<path id="Vector_3" d="M23.3208 41.7316C26.8335 41.7316 29.681 38.8841 29.681 35.3714C29.681 31.8587 26.8335 29.0112 23.3208 29.0112C19.8081 29.0112 16.9606 31.8587 16.9606 35.3714C16.964 38.8827 19.8095 41.7282 23.3208 41.7316ZM23.3208 31.1313C25.6625 31.1313 27.5609 33.0297 27.5609 35.3714C27.5609 37.7132 25.6625 39.6116 23.3208 39.6116C20.979 39.6116 19.0806 37.7132 19.0806 35.3714C19.0806 33.0297 20.979 31.1313 23.3208 31.1313Z" fill="#620D98"/>
<path id="Vector_4" d="M11.6604 36.9616C12.5385 36.9616 13.2504 36.2497 13.2504 35.3715C13.2504 34.4934 12.5385 33.7815 11.6604 33.7815C10.7823 33.7815 10.0703 34.4934 10.0703 35.3715C10.0703 36.2498 10.7823 36.9616 11.6604 36.9616ZM11.6604 34.8415C11.9531 34.8415 12.1904 35.0788 12.1904 35.3715C12.1904 35.6642 11.9531 35.9016 11.6604 35.9016C11.3677 35.9016 11.1303 35.6642 11.1303 35.3715C11.1303 35.0788 11.3677 34.8415 11.6604 34.8415Z" fill="#620D98"/>
<path id="Vector_5" d="M34.9812 36.9616C35.8593 36.9616 36.5712 36.2497 36.5712 35.3715C36.5712 34.4934 35.8593 33.7815 34.9812 33.7815C34.1031 33.7815 33.3911 34.4934 33.3911 35.3715C33.3911 36.2498 34.1031 36.9616 34.9812 36.9616ZM34.9812 34.8415C35.2739 34.8415 35.5112 35.0788 35.5112 35.3715C35.5112 35.6642 35.2739 35.9016 34.9812 35.9016C34.6885 35.9016 34.4511 35.6642 34.4511 35.3715C34.4511 35.0788 34.6885 34.8415 34.9812 34.8415Z" fill="#620D98"/>
</g>
</g>
</g>
</g>
</svg>
