<svg width="54" height="54" viewBox="0 0 54 54" fill="none" xmlns="http://www.w3.org/2000/svg">
<g id="baby 1" clip-path="url(#clip0_1_1974)">
<g id="Group">
<g id="Group_2">
<path id="Vector" d="M15.3575 32.8148C15.357 32.8138 15.3515 32.8044 15.3509 32.8034C15.0438 32.2785 14.3722 32.1058 13.847 32.412C13.3216 32.7182 13.1461 33.3962 13.4516 33.9219C13.4521 33.9228 13.4576 33.9322 13.4582 33.9333C13.6625 34.2826 14.0283 34.4759 14.405 34.4759C14.5943 34.4759 14.7864 34.4272 14.9621 34.3247C15.4875 34.0185 15.6628 33.3405 15.3575 32.8148Z" fill="#620D98"/>
</g>
</g>
<g id="Group_3">
<g id="Group_4">
<path id="Vector_2" d="M34.5543 25.7247C34.4909 25.1193 33.949 24.6801 33.3436 24.7434C32.2201 24.861 31.1204 24.4717 30.3244 23.6756C29.5283 22.8795 29.1391 21.779 29.2566 20.6563C29.32 20.051 28.8807 19.5089 28.2753 19.4456C27.67 19.3819 27.128 19.8217 27.0647 20.4269C26.8777 22.2137 27.4977 23.9659 28.7661 25.2342C29.8857 26.3539 31.3823 26.9683 32.9471 26.9683C33.1548 26.9683 33.3639 26.9574 33.573 26.9354C34.1783 26.8722 34.6176 26.33 34.5543 25.7247Z" fill="#620D98"/>
</g>
</g>
<g id="Group_5">
<g id="Group_6">
<path id="Vector_3" d="M34.3118 17.7953C34.2486 17.1902 33.7083 16.7495 33.1012 16.8141C32.7684 16.8489 32.4412 16.7335 32.2049 16.4971C31.9686 16.261 31.8533 15.9344 31.8881 15.601C31.9514 14.9956 31.5121 14.4536 30.9068 14.3903C30.3002 14.3273 29.7594 14.7663 29.6961 15.3716C29.5917 16.3691 29.9382 17.3475 30.6464 18.0557C31.2718 18.6813 32.1074 19.0246 32.9814 19.0245C33.0972 19.0245 33.2139 19.0185 33.3306 19.0062C33.9358 18.9427 34.3752 18.4007 34.3118 17.7953Z" fill="#620D98"/>
</g>
</g>
<g id="Group_7">
<g id="Group_8">
<path id="Vector_4" d="M39.6098 23.093C39.5466 22.4879 39.0048 22.0482 38.3992 22.1118C38.0656 22.1466 37.7391 22.0312 37.5028 21.7947C37.2666 21.5587 37.1513 21.232 37.1861 20.8987C37.2496 20.2933 36.8101 19.7513 36.2048 19.688C35.5977 19.6245 35.0574 20.064 34.9941 20.6693C34.8897 21.6668 35.2362 22.6452 35.9443 23.3532C36.5697 23.9788 37.4055 24.3221 38.2794 24.3221C38.3952 24.3221 38.5118 24.3161 38.6286 24.3038C39.2338 24.2405 39.6732 23.6984 39.6098 23.093Z" fill="#620D98"/>
</g>
</g>
<g id="Group_9">
<g id="Group_10">
<path id="Vector_5" d="M44.6789 9.32094C44.6748 9.31672 44.6705 9.31282 44.6663 9.30871L44.6664 9.3086C44.6622 9.30438 44.6579 9.30069 44.6538 9.29658C41.9786 6.63423 38.4285 5.16821 34.653 5.16821C30.8657 5.16821 27.305 6.64309 24.6269 9.32105C19.0988 14.8493 19.0988 23.8445 24.6269 29.3729C26.1379 30.8838 27.9299 32.0115 29.885 32.7077C25.8678 32.4032 22.1325 30.693 19.2539 27.8144C18.8236 27.3844 18.126 27.3842 17.6953 27.8144C17.265 28.2447 17.265 28.9426 17.6953 29.373C21.299 32.9767 26.0905 34.9614 31.1871 34.9613C36.2511 34.9612 41.0134 33.001 44.6093 29.4408C44.6323 29.418 44.6559 29.3959 44.6788 29.3729L44.679 29.3727C50.2071 23.8444 50.2071 14.8492 44.6789 9.32094ZM43.1203 27.8144C43.0495 27.8851 42.9777 27.9542 42.906 28.0235C40.6704 30.1529 37.7515 31.3217 34.653 31.3217C31.4545 31.3217 28.4473 30.0762 26.1856 27.8145C21.5167 23.1454 21.5167 15.5484 26.1856 10.8797C28.4472 8.61799 31.4544 7.3724 34.653 7.3724C35.9111 7.3724 37.1392 7.56594 38.3044 7.9373C37.5175 8.23419 36.7954 8.69635 36.1829 9.30881C35.2349 10.2568 34.7128 11.5174 34.7129 12.8582C34.7129 14.1989 35.2351 15.4594 36.1832 16.4073C36.9701 17.1944 37.9587 17.6751 38.9675 17.7612C39.0778 17.7707 39.1874 17.7753 39.2962 17.7753C40.2731 17.7753 41.1827 17.3985 41.8855 16.6956C43.341 15.2401 43.3856 13.4037 41.9993 12.0175C41.5689 11.5873 40.8712 11.5873 40.4407 12.0175C40.0104 12.4478 40.0104 13.1457 40.4407 13.5761C40.6757 13.811 41.1643 14.2997 40.327 15.1372C40.0041 15.4601 39.6094 15.6043 39.1548 15.5651C38.6634 15.5232 38.1613 15.2688 37.7416 14.8489C36.6438 13.7512 36.6437 11.965 37.7413 10.8674C39.2172 9.3916 41.6157 9.38812 43.0962 10.8561C43.1041 10.8641 43.1123 10.8716 43.1204 10.8797C47.7891 15.5486 47.7891 23.1454 43.1203 27.8144Z" fill="#620D98"/>
</g>
</g>
<g id="Group_11">
<g id="Group_12">
<path id="Vector_6" d="M9.30498 38.8976L9.28273 38.859C8.97107 38.3364 8.29301 38.1629 7.77052 38.4746C7.24771 38.7862 7.07537 39.4605 7.38703 39.9832C7.58985 40.3415 7.963 40.5426 8.34701 40.5426C8.53095 40.5426 8.71752 40.4964 8.88891 40.3995C9.41847 40.0997 9.60483 39.4273 9.30498 38.8976Z" fill="#620D98"/>
</g>
</g>
<g id="Group_13">
<g id="Group_14">
<path id="Vector_7" d="M48.4641 5.53627C44.8938 1.96615 40.1471 0 35.0982 0C30.0492 0 25.3023 1.96625 21.732 5.53648L5.53681 21.7316C-1.83325 29.1018 -1.83335 41.0936 5.53659 48.4637C9.10682 52.0339 13.8535 54 18.9025 54C23.9517 54 28.6985 52.0337 32.2688 48.4635L48.464 32.2684C55.8339 24.8983 55.834 12.9063 48.4641 5.53627ZM46.9052 30.7098L30.7101 46.9049C27.5562 50.0588 23.3628 51.7959 18.9025 51.7959C14.4423 51.7959 10.249 50.0589 7.09521 46.9052C1.14382 40.9538 0.633879 31.5915 5.56275 25.0539C5.45654 25.4198 5.35877 25.7887 5.2744 26.1618C4.50311 29.574 4.67977 33.1286 5.7854 36.4414C5.93938 36.9029 6.36938 37.1948 6.83059 37.1948C6.94618 37.1948 7.06389 37.1765 7.17959 37.1378C7.75682 36.9452 8.06869 36.3209 7.876 35.7436C5.87241 29.7402 7.34496 23.2431 11.7122 18.6996C11.5705 19.16 11.4446 19.626 11.3378 20.0983C10.5665 23.5105 10.7432 27.0651 11.8488 30.378C12.0028 30.8396 12.4327 31.1314 12.894 31.1314C13.0096 31.1314 13.1272 31.1131 13.243 31.0744C13.8202 30.8818 14.1321 30.2575 13.9394 29.6802C11.8995 23.5679 13.4606 16.9426 18.0135 12.3898C18.0088 12.3883 18.0049 12.3866 18.0004 12.385L23.2904 7.09499C26.4445 3.94116 30.6378 2.20409 35.0983 2.20409C39.5586 2.20409 43.7517 3.94105 46.9057 7.09488C53.4161 13.6055 53.416 24.1992 46.9052 30.7098Z" fill="#620D98"/>
</g>
</g>
</g>
<defs>
<clipPath id="clip0_1_1974">
<rect width="54" height="54" fill="white"/>
</clipPath>
</defs>
</svg>
