<svg width="54" height="54" viewBox="0 0 54 54" fill="none" xmlns="http://www.w3.org/2000/svg">
<g id="book 1" clip-path="url(#clip0_1_2054)">
<g id="Page 1">
<g id="026   Idea">
<path id="Shape" d="M49.6287 28.3076C49.466 27.4602 48.7249 26.8474 47.862 26.8469H46.1241L45.9963 26.081C45.8688 25.3118 45.2627 24.7108 44.4924 24.5897C44.3214 24.5627 44.1486 24.5447 43.9785 24.5213C44.2732 23.1454 44.0284 21.7089 43.2945 20.5082C43.6822 19.5025 43.6099 18.3773 43.0965 17.4295C42.5831 16.4817 41.6802 15.8064 40.626 15.5816C39.952 11.9744 36.8139 9.35234 33.1443 9.33024C33.0543 9.33024 32.9742 9.34194 32.8887 9.34464C32.3023 8.42381 31.3356 7.81266 30.2523 7.67792C29.169 7.54318 28.0821 7.8989 27.288 8.64804C26.2877 7.99781 25.1205 7.65115 23.9274 7.64994C22.005 7.65781 20.1933 8.55007 19.0152 10.0691C17.7071 9.68769 16.2965 9.92191 15.1818 10.7056C14.0672 11.4894 13.3695 12.7375 13.2858 14.0975C11.9118 14.6751 11.0178 16.0199 11.0169 17.5103C11.0197 17.7687 11.0499 18.026 11.1069 18.278C9.89179 20.1098 9.57428 22.3943 10.2438 24.488C10.0026 24.5213 9.75599 24.551 9.52379 24.5852C8.74947 24.7021 8.13798 25.3034 8.00819 26.0756L7.88039 26.8442H6.13799C5.27655 26.8448 4.53629 27.4557 4.37219 28.3013L0.431087 48.5351C0.277174 49.3276 0.485888 50.1473 1.00002 50.7696C1.51415 51.3919 2.27976 51.7516 3.08699 51.7499H21.8556C22.6008 52.9793 24.8652 53.5499 27 53.5499C29.1123 53.5499 31.3551 52.9928 32.1219 51.7499H50.913C51.72 51.7515 52.4855 51.392 52.9995 50.7699C53.5136 50.1478 53.7225 49.3283 53.5689 48.536L49.6287 28.3076ZM13.7385 19.1393C13.0077 18.7 12.659 17.8278 12.8854 17.0057C13.1117 16.1836 13.8578 15.6129 14.7105 15.6095C15.3072 15.6078 15.8688 15.8914 16.2216 16.3727C16.4132 16.6309 16.7281 16.7673 17.0475 16.7304C17.3669 16.6936 17.6424 16.4891 17.7702 16.194C17.898 15.899 17.8586 15.5581 17.667 15.2999C17.0559 14.4831 16.1297 13.9606 15.1146 13.8599C15.3829 12.5995 16.4944 11.6972 17.7831 11.6936C17.8929 11.6992 18.0023 11.7112 18.1107 11.7296C18.0383 11.9142 17.9752 12.1022 17.9217 12.293C17.8097 12.7695 18.0989 13.2481 18.5727 13.3704C19.0466 13.4928 19.5314 13.2141 19.6641 12.743C19.7664 12.3475 19.9237 11.9682 20.1312 11.6162C20.9295 10.2788 22.3698 9.4569 23.9274 9.44994C24.7751 9.4537 25.6034 9.70385 26.3115 10.1699C26.1766 10.5489 26.1051 10.9476 26.1 11.3498C26.1 11.8469 26.5029 12.2498 27 12.2498C27.497 12.2498 27.9 11.8469 27.9 11.3498C27.9 10.3043 28.7476 9.45669 29.7931 9.45669C30.8387 9.45669 31.6863 10.3043 31.6863 11.3498C31.6863 11.8469 32.0892 12.2498 32.5863 12.2498C33.0833 12.2498 33.4863 11.8469 33.4863 11.3498C33.4863 11.2805 33.4692 11.2148 33.4656 11.1455C36.0426 11.3045 38.2096 13.1364 38.7954 15.6509C38.3756 15.7732 37.9811 15.9698 37.6308 16.2314C37.3736 16.4244 37.2388 16.7399 37.2772 17.0591C37.3157 17.3783 37.5216 17.6528 37.8172 17.7791C38.1129 17.9054 38.4536 17.8644 38.7108 17.6714C39.43 17.139 40.4235 17.1814 41.0946 17.7733C41.7657 18.3653 41.932 19.3456 41.4936 20.1257C41.2977 20.4702 41 20.7456 40.6413 20.9141C40.2652 21.0963 40.0639 21.5133 40.1553 21.9211C40.2467 22.3289 40.6068 22.6201 41.0247 22.6241C41.1567 22.6243 41.287 22.5951 41.4063 22.5386C41.6448 22.4231 41.8702 22.2821 42.0786 22.1183C42.5438 23.441 42.252 24.912 41.3172 25.9568L41.2956 25.9793C40.1231 27.2495 38.2527 27.5928 36.7056 26.8217C36.5541 26.7417 36.4085 26.6509 36.27 26.5499C36.9329 25.6206 37.0245 24.3998 36.5076 23.3819C36.3629 23.0946 36.0759 22.9064 35.7548 22.888C35.4336 22.8697 35.1271 23.0241 34.9506 23.293C34.7742 23.562 34.7546 23.9046 34.8993 24.1919C35.1952 24.7868 35.0106 25.5087 34.4655 25.8884C34.1453 26.1016 33.7499 26.169 33.3772 26.0739C33.0045 25.9789 32.6896 25.7303 32.5107 25.3898C32.3668 25.1022 32.0804 24.9132 31.7594 24.894C31.4383 24.8748 31.1315 25.0284 30.9543 25.2968C30.7772 25.5652 30.7567 25.9077 30.9006 26.1953C31.4284 27.2608 32.5159 27.9337 33.705 27.9305C34.0921 27.9279 34.4753 27.8525 34.8345 27.7082C35.1559 27.9897 35.5101 28.2314 35.8893 28.4282C37.172 29.0931 38.6635 29.231 40.0464 28.8125C39.157 30.027 37.8259 30.8431 36.3402 31.085C35.878 31.1603 35.5507 31.5774 35.5876 32.0442C35.6245 32.5111 36.0132 32.8716 36.4815 32.8733C36.5294 32.8733 36.5772 32.8697 36.6246 32.8625C37.1726 32.7677 37.7082 32.6113 38.2212 32.3963C38.4984 32.8865 38.7235 33.4045 38.8926 33.9416C38.9236 34.0354 38.9394 34.1336 38.9394 34.2323C38.9392 34.6213 38.7068 34.9727 38.349 35.1251C37.935 35.2853 37.465 35.1589 37.1871 34.8128C36.4901 33.9944 35.5774 33.3879 34.5528 33.0623C32.6079 32.4107 31.8573 31.8284 31.5387 31.1948C32.0057 31.1366 32.4671 31.0403 32.9184 30.9068C33.2258 30.8123 33.4594 30.561 33.5312 30.2475C33.603 29.934 33.5022 29.606 33.2666 29.3871C33.0311 29.1682 32.6966 29.0915 32.3892 29.186C31.8842 29.341 31.3629 29.4367 30.8358 29.4713C29.8203 29.5507 28.8001 29.3968 27.8532 29.0213C27.4977 28.8827 27.0933 28.9833 26.8443 29.2724C25.5339 30.7777 23.2912 31.0335 21.6755 29.8621C20.0598 28.6907 19.6057 26.4796 20.6289 24.7661C20.7946 24.4895 20.8002 24.1454 20.6435 23.8635C20.4867 23.5816 20.1915 23.4047 19.869 23.3995C19.5465 23.3943 19.2457 23.5616 19.08 23.8382C18.8653 24.2037 18.6926 24.5923 18.5652 24.9965C17.8565 24.9593 17.2976 24.3796 17.2863 23.6699V23.6474C17.2858 23.41 17.1905 23.1825 17.0215 23.0157C16.8524 22.8489 16.6238 22.7565 16.3863 22.7591C15.8871 22.7641 15.4853 23.1707 15.4863 23.6699C15.4903 25.2661 16.694 26.6039 18.2808 26.7758C18.284 27.0776 18.3114 27.3785 18.3627 27.6758C16.3532 28.1107 14.2689 27.3883 12.9594 25.8033C11.6499 24.2182 11.3339 22.0351 12.1401 20.1437C12.3414 20.3475 12.5662 20.5266 12.8097 20.6774C13.2348 20.9265 13.7812 20.7874 14.0355 20.3653C14.2898 19.9433 14.1574 19.3952 13.7385 19.1357V19.1393ZM9.77849 26.369C10.1934 26.3078 10.6218 26.2538 11.0475 26.198C12.7115 28.8572 15.8941 30.1484 18.9405 29.4002C19.759 30.9538 21.2548 32.0372 22.9861 32.3306C24.7174 32.6241 26.4865 32.094 27.7713 30.8969C28.3829 31.0794 29.0128 31.1935 29.6496 31.2371C30.0843 32.8859 31.3407 33.8849 33.9804 34.7696C34.692 34.9927 35.3268 35.4109 35.8128 35.9765C36.3531 36.619 37.1478 36.9923 37.9872 36.998C38.3543 36.9979 38.7176 36.9239 39.0555 36.7802C40.0757 36.3442 40.7375 35.3418 40.7376 34.2323C40.7384 33.943 40.6922 33.6555 40.6008 33.3809C40.3984 32.745 40.1318 32.1314 39.8052 31.5494C41.3356 30.4493 42.4017 28.8188 42.7959 26.9756C42.9876 26.7479 43.1609 26.5054 43.3143 26.2502C43.6158 26.2889 43.9173 26.3231 44.2206 26.3735L47.4696 45.9161C41.1187 43.7955 34.2508 43.7955 27.9 45.9161V34.6499C27.9 34.1529 27.497 33.7499 27 33.7499C26.5029 33.7499 26.1 34.1529 26.1 34.6499V45.9197C19.7499 43.7971 12.8821 43.7946 6.53039 45.9125L9.77849 26.369ZM2.38589 49.6187C2.21583 49.4133 2.1465 49.1426 2.19689 48.8807L6.13799 28.6469H7.57799L4.75379 45.62C4.65445 46.2378 4.88193 46.863 5.35505 47.2726C5.82816 47.6821 6.47952 47.8175 7.07669 47.6306C11.8746 46.0762 16.9861 45.7519 21.942 46.6874L21.6738 49.9499H3.08699C2.81547 49.9501 2.55818 49.8286 2.38589 49.6187ZM27 51.7499C24.8319 51.7499 23.5881 51.1091 23.4054 50.8238L23.715 47.0888C24.7046 47.3353 25.6731 47.66 26.6112 48.0599C26.7325 48.1184 26.8653 48.1491 27 48.1499C27.135 48.1497 27.2682 48.119 27.3897 48.0599C28.3272 47.6576 29.2954 47.3308 30.285 47.0825L30.5946 50.8229C30.4119 51.1091 29.1681 51.7499 27 51.7499ZM51.6141 49.6187C51.4418 49.8286 51.1845 49.9501 50.913 49.9499H32.3289L32.0589 46.6811C37.0175 45.7475 42.1312 46.0746 46.9305 47.6324C47.5275 47.8169 48.1775 47.6795 48.6488 47.2692C49.1201 46.8589 49.3457 46.2341 49.2453 45.6173L46.4238 28.6478H47.8638L51.8058 48.8798C51.8557 49.1424 51.7854 49.4136 51.6141 49.6187Z" fill="#620D98"/>
<path id="Shape_2" d="M24.0174 20.8664C23.6489 21.1997 23.6203 21.7685 23.9535 22.1372C24.7169 22.9801 25.7259 23.5619 26.838 23.8004C26.3343 24.5101 25.5176 24.9312 24.6474 24.9299C24.1503 24.9299 23.7474 25.3328 23.7474 25.8299C23.7474 26.3269 24.1503 26.7299 24.6474 26.7299C26.5105 26.7373 28.1822 25.5866 28.8405 23.8436C31.0783 23.4727 32.8501 21.7501 33.2838 19.5236C33.3508 19.2051 33.2406 18.8752 32.9957 18.6609C32.7508 18.4466 32.4092 18.3812 32.1025 18.4899C31.7957 18.5986 31.5715 18.8644 31.5162 19.1852C31.3397 20.1134 30.8041 20.9346 30.0258 21.4703C28.5284 22.4787 26.5202 22.2498 25.2882 20.9303C24.9548 20.5618 24.386 20.5332 24.0174 20.8664Z" fill="#620D98"/>
<path id="Shape_3" d="M20.88 19.8901C21.377 19.8901 21.78 19.4872 21.78 18.9901C21.78 18.3695 22.0265 17.7743 22.4654 17.3355C22.9042 16.8966 23.4994 16.6501 24.12 16.6501C24.617 16.6501 25.02 16.2472 25.02 15.7501C25.02 15.253 24.617 14.8501 24.12 14.8501C21.8345 14.8526 19.9825 16.7047 19.98 18.9901C19.98 19.2288 20.0748 19.4577 20.2436 19.6265C20.4124 19.7953 20.6413 19.8901 20.88 19.8901Z" fill="#620D98"/>
<path id="Shape_4" d="M27.9 2.24995V1.34995C27.9 0.852895 27.497 0.449951 27 0.449951C26.5029 0.449951 26.1 0.852895 26.1 1.34995V2.24995C26.1 2.74701 26.5029 3.14995 27 3.14995C27.497 3.14995 27.9 2.74701 27.9 2.24995Z" fill="#620D98"/>
<path id="Shape_5" d="M41.769 6.90833L40.869 7.80833C40.6351 8.03429 40.5412 8.36892 40.6236 8.68358C40.706 8.99825 40.9517 9.24399 41.2664 9.32635C41.581 9.40872 41.9157 9.31489 42.1416 9.08093L43.0416 8.18093C43.2756 7.95496 43.3694 7.62034 43.287 7.30567C43.2047 6.991 42.9589 6.74526 42.6443 6.6629C42.3296 6.58054 41.995 6.67437 41.769 6.90833Z" fill="#620D98"/>
<path id="Shape_6" d="M12.4947 9.34463C12.8586 9.34455 13.1867 9.12527 13.326 8.78902C13.4653 8.45276 13.3883 8.06572 13.131 7.80833L12.231 6.90833C12.005 6.67437 11.6704 6.58054 11.3557 6.6629C11.0411 6.74526 10.7953 6.991 10.7129 7.30567C10.6306 7.62034 10.7244 7.95496 10.9584 8.18093L11.8584 9.08093C12.0271 9.24972 12.256 9.34458 12.4947 9.34463Z" fill="#620D98"/>
<path id="Shape_7" d="M19.4229 5.5575C19.5412 5.55724 19.6582 5.53401 19.7676 5.4891C19.9882 5.39772 20.1634 5.22243 20.2548 5.00182C20.3461 4.7812 20.346 4.53334 20.2545 4.3128L19.2204 1.818C19.102 1.51413 18.8284 1.29813 18.5053 1.2534C18.1823 1.20866 17.8603 1.34219 17.6637 1.60243C17.4672 1.86267 17.4268 2.20889 17.5581 2.5074L18.5913 5.0022C18.7307 5.33843 19.0589 5.55759 19.4229 5.5575Z" fill="#620D98"/>
<path id="Shape_8" d="M35.955 1.33104C35.496 1.14114 34.9699 1.35907 34.7796 1.81794L33.7455 4.31274C33.6537 4.53339 33.6535 4.78148 33.7448 5.00231C33.8362 5.22314 34.0116 5.39857 34.2324 5.48994C34.3418 5.53486 34.4589 5.55809 34.5771 5.55834C34.9411 5.55843 35.2693 5.33927 35.4087 5.00304L36.4419 2.50824C36.5337 2.28759 36.5339 2.0395 36.4426 1.81867C36.3512 1.59785 36.1758 1.42241 35.955 1.33104Z" fill="#620D98"/>
<path id="Shape_9" d="M45.2925 16.2738C45.4108 16.2736 45.528 16.2501 45.6372 16.2045L48.1311 15.1713C48.4282 15.0484 48.6371 14.7762 48.6791 14.4574C48.7212 14.1386 48.59 13.8216 48.3349 13.6258C48.0798 13.43 47.7397 13.3852 47.4426 13.5081L44.9478 14.5413C44.5497 14.7049 44.3231 15.1274 44.407 15.5495C44.491 15.9716 44.8621 16.2752 45.2925 16.2738Z" fill="#620D98"/>
<path id="Shape_10" d="M8.36279 16.2043C8.82207 16.3947 9.34872 16.1767 9.53909 15.7174C9.72946 15.2581 9.51147 14.7315 9.05219 14.5411L6.55739 13.5079C6.09811 13.3178 5.57166 13.536 5.38154 13.9952C5.19141 14.4545 5.40961 14.981 5.86889 15.1711L8.36279 16.2043Z" fill="#620D98"/>
</g>
</g>
</g>
<defs>
<clipPath id="clip0_1_2054">
<rect width="54" height="54" fill="white"/>
</clipPath>
</defs>
</svg>
